<svg width="157" height="41" viewBox="0 0 157 41" fill="none" xmlns="http://www.w3.org/2000/svg">
<g clip-path="url(#clip0_1367_235)">
<path d="M14.5383 7.35996C14.7091 6.94932 15.2909 6.94932 15.4617 7.35996L18.8503 15.5072C18.9223 15.6803 19.0851 15.7986 19.272 15.8135L28.0675 16.5187C28.5109 16.5542 28.6906 17.1075 28.3529 17.3968L21.6516 23.1372C21.5092 23.2592 21.447 23.4506 21.4905 23.6329L23.5378 32.2159C23.641 32.6485 23.1704 32.9905 22.7909 32.7586L15.2606 28.1592C15.1006 28.0615 14.8994 28.0615 14.7394 28.1592L7.20913 32.7586C6.82958 32.9905 6.35896 32.6485 6.46215 32.2159L8.50951 23.6329C8.55301 23.4506 8.49083 23.2592 8.34843 23.1372L1.64713 17.3968C1.30936 17.1075 1.48912 16.5542 1.93245 16.5187L10.728 15.8135C10.9149 15.7986 11.0777 15.6803 11.1497 15.5072L14.5383 7.35996Z" fill="#FDB022"/>
</g>
<g clip-path="url(#clip1_1367_235)">
<path d="M46.2883 7.35996C46.4591 6.94932 47.0409 6.94932 47.2117 7.35996L50.6003 15.5072C50.6723 15.6803 50.8351 15.7986 51.022 15.8135L59.8175 16.5187C60.2609 16.5542 60.4406 17.1075 60.1029 17.3968L53.4016 23.1372C53.2592 23.2592 53.197 23.4506 53.2405 23.6329L55.2878 32.2159C55.391 32.6485 54.9204 32.9905 54.5409 32.7586L47.0106 28.1592C46.8506 28.0615 46.6494 28.0615 46.4894 28.1592L38.9591 32.7586C38.5796 32.9905 38.109 32.6485 38.2122 32.2159L40.2595 23.6329C40.303 23.4506 40.2408 23.2592 40.0984 23.1372L33.3971 17.3968C33.0594 17.1075 33.2391 16.5542 33.6825 16.5187L42.478 15.8135C42.6649 15.7986 42.8277 15.6803 42.8997 15.5072L46.2883 7.35996Z" fill="#FDB022"/>
</g>
<g clip-path="url(#clip2_1367_235)">
<path d="M78.0383 7.35996C78.2091 6.94932 78.7909 6.94932 78.9617 7.35996L82.3503 15.5072C82.4223 15.6803 82.5851 15.7986 82.772 15.8135L91.5675 16.5187C92.0109 16.5542 92.1906 17.1075 91.8529 17.3968L85.1516 23.1372C85.0092 23.2592 84.947 23.4506 84.9905 23.6329L87.0378 32.2159C87.141 32.6485 86.6704 32.9905 86.2909 32.7586L78.7606 28.1592C78.6006 28.0615 78.3994 28.0615 78.2394 28.1592L70.7091 32.7586C70.3296 32.9905 69.859 32.6485 69.9622 32.2159L72.0095 23.6329C72.053 23.4506 71.9908 23.2592 71.8484 23.1372L65.1471 17.3968C64.8094 17.1075 64.9891 16.5542 65.4325 16.5187L74.228 15.8135C74.4149 15.7986 74.5777 15.6803 74.6497 15.5072L78.0383 7.35996Z" fill="#FDB022"/>
</g>
<g clip-path="url(#clip3_1367_235)">
<path d="M109.788 7.35996C109.959 6.94932 110.541 6.94932 110.712 7.35996L114.1 15.5072C114.172 15.6803 114.335 15.7986 114.522 15.8135L123.318 16.5187C123.761 16.5542 123.941 17.1075 123.603 17.3968L116.902 23.1372C116.759 23.2592 116.697 23.4506 116.74 23.6329L118.788 32.2159C118.891 32.6485 118.42 32.9905 118.041 32.7586L110.511 28.1592C110.351 28.0615 110.149 28.0615 109.989 28.1592L102.459 32.7586C102.08 32.9905 101.609 32.6485 101.712 32.2159L103.76 23.6329C103.803 23.4506 103.741 23.2592 103.598 23.1372L96.8971 17.3968C96.5594 17.1075 96.7391 16.5542 97.1825 16.5187L105.978 15.8135C106.165 15.7986 106.328 15.6803 106.4 15.5072L109.788 7.35996Z" fill="#FDB022"/>
</g>
<g clip-path="url(#clip4_1367_235)">
<path d="M141.538 7.35996C141.709 6.94932 142.291 6.94932 142.462 7.35996L145.85 15.5072C145.922 15.6803 146.085 15.7986 146.272 15.8135L155.068 16.5187C155.511 16.5542 155.691 17.1075 155.353 17.3968L148.652 23.1372C148.509 23.2592 148.447 23.4506 148.49 23.6329L150.538 32.2159C150.641 32.6485 150.17 32.9905 149.791 32.7586L142.261 28.1592C142.101 28.0615 141.899 28.0615 141.739 28.1592L134.209 32.7586C133.83 32.9905 133.359 32.6485 133.462 32.2159L135.51 23.6329C135.553 23.4506 135.491 23.2592 135.348 23.1372L128.647 17.3968C128.309 17.1075 128.489 16.5542 128.932 16.5187L137.728 15.8135C137.915 15.7986 138.078 15.6803 138.15 15.5072L141.538 7.35996Z" fill="#FDB022"/>
</g>
<defs>
<clipPath id="clip0_1367_235">
<rect width="30" height="30" fill="white" transform="translate(0 5.5)"/>
</clipPath>
<clipPath id="clip1_1367_235">
<rect width="30" height="30" fill="white" transform="translate(31.75 5.5)"/>
</clipPath>
<clipPath id="clip2_1367_235">
<rect width="30" height="30" fill="white" transform="translate(63.5 5.5)"/>
</clipPath>
<clipPath id="clip3_1367_235">
<rect width="30" height="30" fill="white" transform="translate(95.25 5.5)"/>
</clipPath>
<clipPath id="clip4_1367_235">
<rect width="30" height="30" fill="white" transform="translate(127 5.5)"/>
</clipPath>
</defs>
</svg>
