<svg width="1429" height="743" viewBox="0 0 1429 743" fill="none" xmlns="http://www.w3.org/2000/svg">
<g clip-path="url(#clip0_1438_19432)">
<mask id="mask0_1438_19432" style="mask-type:luminance" maskUnits="userSpaceOnUse" x="-11" y="-169" width="1440" height="912">
<path d="M1429 -169H-11V743H1429V-169Z" fill="white"/>
</mask>
<g mask="url(#mask0_1438_19432)">
<path d="M1438 722.978H-11" stroke="white" stroke-opacity="0.08"/>
<path d="M1438 664.848H-11" stroke="white" stroke-opacity="0.08"/>
<path d="M1438 606.717H-11" stroke="white" stroke-opacity="0.08"/>
<path d="M1438 548.587H-11" stroke="white" stroke-opacity="0.08"/>
<path d="M1438 490.457H-11" stroke="white" stroke-opacity="0.08"/>
<path d="M1438 432.326H-11" stroke="white" stroke-opacity="0.08"/>
<path d="M1438 374.196H-11" stroke="white" stroke-opacity="0.08"/>
<path d="M1438 316.065H-11" stroke="white" stroke-opacity="0.08"/>
<path d="M1438 257.935H-11" stroke="white" stroke-opacity="0.08"/>
<path d="M1438 199.804H-11" stroke="white" stroke-opacity="0.08"/>
<path d="M1438 141.674H-11" stroke="white" stroke-opacity="0.08"/>
<path d="M1438 83.5431H-11" stroke="white" stroke-opacity="0.08"/>
<path d="M1438 25.4131H-11" stroke="white" stroke-opacity="0.08"/>
<path d="M41.5898 743.017V-169.018" stroke="white" stroke-opacity="0.08"/>
<path d="M99.7207 743.017V-169.018" stroke="white" stroke-opacity="0.08"/>
<path d="M157.852 743.017V-169.018" stroke="white" stroke-opacity="0.08"/>
<path d="M215.98 743.017V-169.018" stroke="white" stroke-opacity="0.08"/>
<path d="M274.111 743.017V-169.018" stroke="white" stroke-opacity="0.08"/>
<path d="M332.242 743.017V-169.018" stroke="white" stroke-opacity="0.08"/>
<path d="M390.371 743.017V-169.018" stroke="white" stroke-opacity="0.08"/>
<path d="M448.504 743.017V-169.018" stroke="white" stroke-opacity="0.08"/>
<path d="M506.635 743.017V-169.018" stroke="white" stroke-opacity="0.08"/>
<path d="M564.764 743.017V-169.018" stroke="white" stroke-opacity="0.08"/>
<path d="M622.895 743.017V-169.018" stroke="white" stroke-opacity="0.08"/>
<path d="M681.023 743.017V-169.018" stroke="white" stroke-opacity="0.08"/>
<path d="M739.154 743.017V-169.018" stroke="white" stroke-opacity="0.08"/>
<path d="M797.285 743.017V-169.018" stroke="white" stroke-opacity="0.08"/>
<path d="M855.416 743.017V-169.018" stroke="white" stroke-opacity="0.08"/>
<path d="M913.547 743.017V-169.018" stroke="white" stroke-opacity="0.08"/>
<path d="M971.678 743.017V-169.018" stroke="white" stroke-opacity="0.08"/>
<path d="M1029.81 743.017V-169.018" stroke="white" stroke-opacity="0.08"/>
<path d="M1087.94 743.017V-169.018" stroke="white" stroke-opacity="0.08"/>
<path d="M1146.07 743.017V-169.018" stroke="white" stroke-opacity="0.08"/>
<path d="M1204.2 743.017V-169.018" stroke="white" stroke-opacity="0.08"/>
<path d="M1262.33 743.017V-169.018" stroke="white" stroke-opacity="0.08"/>
<path d="M1320.46 743.017V-169.018" stroke="white" stroke-opacity="0.08"/>
<path d="M1378.59 743.017V-169.018" stroke="white" stroke-opacity="0.08"/>
</g>
<rect x="-11" y="-164" width="1440" height="891" fill="url(#paint0_linear_1438_19432)"/>
<rect x="-11" y="-164" width="1440" height="891" fill="url(#paint1_linear_1438_19432)"/>
<rect x="-11" y="-164" width="1440" height="891" fill="url(#paint2_linear_1438_19432)"/>
</g>
<defs>
<linearGradient id="paint0_linear_1438_19432" x1="853.5" y1="282" x2="129" y2="415" gradientUnits="userSpaceOnUse">
<stop/>
<stop offset="0.552083" stop-opacity="0"/>
<stop offset="1"/>
</linearGradient>
<linearGradient id="paint1_linear_1438_19432" x1="450.5" y1="74.5" x2="494" y2="282" gradientUnits="userSpaceOnUse">
<stop/>
<stop offset="1" stop-opacity="0"/>
</linearGradient>
<linearGradient id="paint2_linear_1438_19432" x1="614.5" y1="569.5" x2="590" y2="359" gradientUnits="userSpaceOnUse">
<stop/>
<stop offset="1" stop-opacity="0"/>
</linearGradient>
<clipPath id="clip0_1438_19432">
<rect width="1440" height="912" fill="white" transform="translate(-11 -169)"/>
</clipPath>
</defs>
</svg>
