<svg width="48" height="48" viewBox="0 0 48 48" fill="none" xmlns="http://www.w3.org/2000/svg">
<rect x="0.5" y="0.5" width="47" height="47" rx="9.5" fill="white"/>
<rect x="0.5" y="0.5" width="47" height="47" rx="9.5" stroke="#EAECF0"/>
<g clip-path="url(#clip0_1451_16)">
<path d="M24 36C30.6274 36 36 30.6274 36 24C36 17.3726 30.6274 12 24 12C17.3726 12 12 17.3726 12 24C12 30.6274 17.3726 36 24 36Z" fill="#F0F0F0"/>
<path d="M12 24.0002C12 28.5487 14.5307 32.5058 18.2609 34.5411V13.4592C14.5307 15.4945 12 19.4516 12 24.0002Z" fill="#F0F0F0"/>
<path d="M23.9989 12.0009C21.92 12.0009 19.9647 12.5297 18.2598 13.4599V34.5417C19.9647 35.472 21.92 36.0009 23.9989 36.0009C30.6263 36.0009 35.9989 30.6282 35.9989 24.0009C35.9989 17.3735 30.6263 12.0009 23.9989 12.0009Z" fill="#0A5B2B"/>
<path d="M29.1317 25.9861C27.6135 27.083 25.4936 26.7415 24.3967 25.2234C23.2997 23.7053 23.6412 21.5853 25.1593 20.4885C25.6327 20.1465 26.1645 19.9443 26.7056 19.874C25.6647 19.7183 24.5643 19.9529 23.6438 20.618C21.7753 21.9681 21.355 24.5772 22.7051 26.4458C24.0551 28.3142 26.6643 28.7345 28.5328 27.3843C29.4534 26.7192 30.0216 25.7483 30.2005 24.711C29.964 25.2025 29.6051 25.644 29.1317 25.9861Z" fill="#F0F0F0"/>
<path d="M29.0669 19.8273L29.9221 20.7489L31.0628 20.2205L30.4505 21.3185L31.3056 22.2402L30.0721 21.9972L29.4598 23.0953L29.3097 21.847L28.0762 21.6039L29.217 21.0756L29.0669 19.8273Z" fill="#F0F0F0"/>
</g>
<defs>
<clipPath id="clip0_1451_16">
<rect width="24" height="24" fill="white" transform="translate(12 12)"/>
</clipPath>
</defs>
</svg>
