<svg width="92" height="16" viewBox="0 0 92 16" fill="none" xmlns="http://www.w3.org/2000/svg">
<path d="M7.53834 1.10997C7.70914 0.699319 8.29086 0.699318 8.46166 1.10996L9.99874 4.80556C10.0707 4.97868 10.2336 5.09696 10.4204 5.11194L14.4102 5.4318C14.8535 5.46734 15.0332 6.02059 14.6955 6.30993L11.6557 8.91378C11.5133 9.03576 11.4512 9.22715 11.4947 9.40952L12.4234 13.3028C12.5265 13.7354 12.0559 14.0773 11.6764 13.8455L8.26063 11.7592C8.10062 11.6615 7.89938 11.6615 7.73937 11.7592L4.32363 13.8455C3.94408 14.0773 3.47345 13.7354 3.57665 13.3028L4.50534 9.40952C4.54884 9.22715 4.48665 9.03576 4.34426 8.91378L1.30453 6.30993C0.966758 6.02059 1.14652 5.46734 1.58985 5.4318L5.57955 5.11194C5.76645 5.09696 5.92925 4.97868 6.00126 4.80556L7.53834 1.10997Z" fill="#FDB022"/>
<path d="M26.5383 1.10997C26.7091 0.699319 27.2909 0.699318 27.4617 1.10996L28.9987 4.80556C29.0707 4.97868 29.2336 5.09696 29.4204 5.11194L33.4102 5.4318C33.8535 5.46734 34.0332 6.02059 33.6955 6.30993L30.6557 8.91378C30.5133 9.03576 30.4512 9.22715 30.4947 9.40952L31.4234 13.3028C31.5265 13.7354 31.0559 14.0773 30.6764 13.8455L27.2606 11.7592C27.1006 11.6615 26.8994 11.6615 26.7394 11.7592L23.3236 13.8455C22.9441 14.0773 22.4735 13.7354 22.5766 13.3028L23.5053 9.40952C23.5488 9.22715 23.4867 9.03576 23.3443 8.91378L20.3045 6.30993C19.9668 6.02059 20.1465 5.46734 20.5898 5.4318L24.5796 5.11194C24.7664 5.09696 24.9293 4.97868 25.0013 4.80556L26.5383 1.10997Z" fill="#FDB022"/>
<path d="M45.5383 1.10997C45.7091 0.699319 46.2909 0.699318 46.4617 1.10996L47.9987 4.80556C48.0707 4.97868 48.2336 5.09696 48.4204 5.11194L52.4102 5.4318C52.8535 5.46734 53.0332 6.02059 52.6955 6.30993L49.6557 8.91378C49.5133 9.03576 49.4512 9.22715 49.4947 9.40952L50.4234 13.3028C50.5265 13.7354 50.0559 14.0773 49.6764 13.8455L46.2606 11.7592C46.1006 11.6615 45.8994 11.6615 45.7394 11.7592L42.3236 13.8455C41.9441 14.0773 41.4735 13.7354 41.5766 13.3028L42.5053 9.40952C42.5488 9.22715 42.4867 9.03576 42.3443 8.91378L39.3045 6.30993C38.9668 6.02059 39.1465 5.46734 39.5898 5.4318L43.5796 5.11194C43.7664 5.09696 43.9293 4.97868 44.0013 4.80556L45.5383 1.10997Z" fill="#FDB022"/>
<path d="M64.5383 1.10997C64.7091 0.699319 65.2909 0.699318 65.4617 1.10996L66.9987 4.80556C67.0707 4.97868 67.2336 5.09696 67.4204 5.11194L71.4102 5.4318C71.8535 5.46734 72.0332 6.02059 71.6955 6.30993L68.6557 8.91378C68.5133 9.03576 68.4512 9.22715 68.4947 9.40952L69.4234 13.3028C69.5265 13.7354 69.0559 14.0773 68.6764 13.8455L65.2606 11.7592C65.1006 11.6615 64.8994 11.6615 64.7394 11.7592L61.3236 13.8455C60.9441 14.0773 60.4735 13.7354 60.5766 13.3028L61.5053 9.40952C61.5488 9.22715 61.4867 9.03576 61.3443 8.91378L58.3045 6.30993C57.9668 6.02059 58.1465 5.46734 58.5898 5.4318L62.5796 5.11194C62.7664 5.09696 62.9293 4.97868 63.0013 4.80556L64.5383 1.10997Z" fill="#FDB022"/>
<path d="M83.5383 1.10997C83.7091 0.699319 84.2909 0.699318 84.4617 1.10996L85.9987 4.80556C86.0707 4.97868 86.2336 5.09696 86.4204 5.11194L90.4102 5.4318C90.8535 5.46734 91.0332 6.02059 90.6955 6.30993L87.6557 8.91378C87.5133 9.03576 87.4512 9.22715 87.4947 9.40952L88.4234 13.3028C88.5265 13.7354 88.0559 14.0773 87.6764 13.8455L84.2606 11.7592C84.1006 11.6615 83.8994 11.6615 83.7394 11.7592L80.3236 13.8455C79.9441 14.0773 79.4735 13.7354 79.5766 13.3028L80.5053 9.40952C80.5488 9.22715 80.4867 9.03576 80.3443 8.91378L77.3045 6.30993C76.9668 6.02059 77.1465 5.46734 77.5898 5.4318L81.5796 5.11194C81.7664 5.09696 81.9293 4.97868 82.0013 4.80556L83.5383 1.10997Z" fill="#FDB022"/>
</svg>
