<svg width="158" height="40" viewBox="0 0 158 40" fill="none" xmlns="http://www.w3.org/2000/svg">
<g clip-path="url(#clip0_1438_22139)">
<path d="M15.0383 6.85996C15.2091 6.44932 15.7909 6.44932 15.9617 6.85996L19.3503 15.0072C19.4223 15.1803 19.5851 15.2986 19.772 15.3135L28.5675 16.0187C29.0109 16.0542 29.1906 16.6075 28.8529 16.8968L22.1516 22.6372C22.0092 22.7592 21.947 22.9506 21.9905 23.1329L24.0378 31.7159C24.141 32.1485 23.6704 32.4905 23.2909 32.2586L15.7606 27.6592C15.6006 27.5615 15.3994 27.5615 15.2394 27.6592L7.70913 32.2586C7.32958 32.4905 6.85896 32.1485 6.96215 31.7159L9.00951 23.1329C9.05301 22.9506 8.99083 22.7592 8.84843 22.6372L2.14713 16.8968C1.80936 16.6075 1.98912 16.0542 2.43245 16.0187L11.228 15.3135C11.4149 15.2986 11.5777 15.1803 11.6497 15.0072L15.0383 6.85996Z" fill="#FDB022"/>
</g>
<g clip-path="url(#clip1_1438_22139)">
<path d="M46.7883 6.85996C46.9591 6.44932 47.5409 6.44932 47.7117 6.85996L51.1003 15.0072C51.1723 15.1803 51.3351 15.2986 51.522 15.3135L60.3175 16.0187C60.7609 16.0542 60.9406 16.6075 60.6029 16.8968L53.9016 22.6372C53.7592 22.7592 53.697 22.9506 53.7405 23.1329L55.7878 31.7159C55.891 32.1485 55.4204 32.4905 55.0409 32.2586L47.5106 27.6592C47.3506 27.5615 47.1494 27.5615 46.9894 27.6592L39.4591 32.2586C39.0796 32.4905 38.609 32.1485 38.7122 31.7159L40.7595 23.1329C40.803 22.9506 40.7408 22.7592 40.5984 22.6372L33.8971 16.8968C33.5594 16.6075 33.7391 16.0542 34.1825 16.0187L42.978 15.3135C43.1649 15.2986 43.3277 15.1803 43.3997 15.0072L46.7883 6.85996Z" fill="#FDB022"/>
</g>
<g clip-path="url(#clip2_1438_22139)">
<path d="M78.5383 6.85996C78.7091 6.44932 79.2909 6.44932 79.4617 6.85996L82.8503 15.0072C82.9223 15.1803 83.0851 15.2986 83.272 15.3135L92.0675 16.0187C92.5109 16.0542 92.6906 16.6075 92.3529 16.8968L85.6516 22.6372C85.5092 22.7592 85.447 22.9506 85.4905 23.1329L87.5378 31.7159C87.641 32.1485 87.1704 32.4905 86.7909 32.2586L79.2606 27.6592C79.1006 27.5615 78.8994 27.5615 78.7394 27.6592L71.2091 32.2586C70.8296 32.4905 70.359 32.1485 70.4622 31.7159L72.5095 23.1329C72.553 22.9506 72.4908 22.7592 72.3484 22.6372L65.6471 16.8968C65.3094 16.6075 65.4891 16.0542 65.9325 16.0187L74.728 15.3135C74.9149 15.2986 75.0777 15.1803 75.1497 15.0072L78.5383 6.85996Z" fill="#FDB022"/>
</g>
<g clip-path="url(#clip3_1438_22139)">
<path d="M110.288 6.85996C110.459 6.44932 111.041 6.44932 111.212 6.85996L114.6 15.0072C114.672 15.1803 114.835 15.2986 115.022 15.3135L123.818 16.0187C124.261 16.0542 124.441 16.6075 124.103 16.8968L117.402 22.6372C117.259 22.7592 117.197 22.9506 117.24 23.1329L119.288 31.7159C119.391 32.1485 118.92 32.4905 118.541 32.2586L111.011 27.6592C110.851 27.5615 110.649 27.5615 110.489 27.6592L102.959 32.2586C102.58 32.4905 102.109 32.1485 102.212 31.7159L104.26 23.1329C104.303 22.9506 104.241 22.7592 104.098 22.6372L97.3971 16.8968C97.0594 16.6075 97.2391 16.0542 97.6825 16.0187L106.478 15.3135C106.665 15.2986 106.828 15.1803 106.9 15.0072L110.288 6.85996Z" fill="#FDB022"/>
</g>
<g clip-path="url(#clip4_1438_22139)">
<path d="M142.038 6.85996C142.209 6.44932 142.791 6.44932 142.962 6.85996L146.35 15.0072C146.422 15.1803 146.585 15.2986 146.772 15.3135L155.568 16.0187C156.011 16.0542 156.191 16.6075 155.853 16.8968L149.152 22.6372C149.009 22.7592 148.947 22.9506 148.99 23.1329L151.038 31.7159C151.141 32.1485 150.67 32.4905 150.291 32.2586L142.761 27.6592C142.601 27.5615 142.399 27.5615 142.239 27.6592L134.709 32.2586C134.33 32.4905 133.859 32.1485 133.962 31.7159L136.01 23.1329C136.053 22.9506 135.991 22.7592 135.848 22.6372L129.147 16.8968C128.809 16.6075 128.989 16.0542 129.432 16.0187L138.228 15.3135C138.415 15.2986 138.578 15.1803 138.65 15.0072L142.038 6.85996Z" fill="#FDB022"/>
</g>
<defs>
<clipPath id="clip0_1438_22139">
<rect width="30" height="30" fill="white" transform="translate(0.5 5)"/>
</clipPath>
<clipPath id="clip1_1438_22139">
<rect width="30" height="30" fill="white" transform="translate(32.25 5)"/>
</clipPath>
<clipPath id="clip2_1438_22139">
<rect width="30" height="30" fill="white" transform="translate(64 5)"/>
</clipPath>
<clipPath id="clip3_1438_22139">
<rect width="30" height="30" fill="white" transform="translate(95.75 5)"/>
</clipPath>
<clipPath id="clip4_1438_22139">
<rect width="30" height="30" fill="white" transform="translate(127.5 5)"/>
</clipPath>
</defs>
</svg>
