<svg width="39" height="39" viewBox="0 0 39 39" fill="none" xmlns="http://www.w3.org/2000/svg">
<g clip-path="url(#clip0_1435_18467)">
<path d="M7.75112 0.5C3.88424 0.5 0.75 3.64944 0.75 7.53456V31.4654C0.75 35.3506 3.885 38.5 7.75188 38.5H31.7481C35.615 38.5 38.75 35.3506 38.75 31.4654V7.53456C38.75 3.64944 35.615 0.5 31.7481 0.5H7.75112Z" fill="#14A800"/>
<path d="M28.0846 23.5828C25.7202 23.5828 24.1561 21.758 23.7183 21.0482C24.2777 16.5634 25.917 15.1498 28.0846 15.1498C30.2262 15.1498 31.8944 16.8621 31.8944 19.3663C31.8944 21.8705 30.2262 23.5828 28.0846 23.5828ZM28.0846 12.3971C24.2306 12.3971 22.0707 14.9104 21.4536 17.4982C20.7513 16.1804 20.2345 14.4172 19.8272 12.7786H14.5003V19.4089C14.5003 21.8181 13.4074 23.5942 11.2635 23.5942C9.11951 23.5942 7.89135 21.8181 7.89135 19.4096L7.91415 12.7786H4.84375V19.4089C4.84375 21.3446 5.47151 23.0994 6.61151 24.3519C7.78799 25.6424 9.39615 26.3241 11.262 26.3241C14.9692 26.3241 17.5555 23.4809 17.5555 19.4111V14.956C17.9462 16.4221 18.8627 19.2417 20.6267 21.7139L18.979 31.0954H22.1011L23.1886 24.4439C23.5458 24.7395 23.9243 25.007 24.321 25.2457C25.3617 25.9071 26.561 26.2769 27.7935 26.3165H27.7996C27.8915 26.3165 27.985 26.3218 28.08 26.3218C31.902 26.3218 34.9458 23.3624 34.9458 19.3731C34.9466 15.3816 31.9058 12.3971 28.0846 12.3971Z" fill="white"/>
</g>
<defs>
<clipPath id="clip0_1435_18467">
<rect width="38" height="38" fill="white" transform="translate(0.75 0.5)"/>
</clipPath>
</defs>
</svg>
