<svg width="48" height="48" viewBox="0 0 48 48" fill="none" xmlns="http://www.w3.org/2000/svg">
<rect x="0.5" y="0.5" width="47" height="47" rx="9.5" fill="white"/>
<rect x="0.5" y="0.5" width="47" height="47" rx="9.5" stroke="#EAECF0"/>
<g clip-path="url(#clip0_1451_7)">
<path d="M24 36C30.6274 36 36 30.6274 36 24C36 17.3726 30.6274 12 24 12C17.3726 12 12 17.3726 12 24C12 30.6274 17.3726 36 24 36Z" fill="white"/>
<path d="M23.4785 24H36.0002C36.0002 22.9169 35.8559 21.8676 35.5868 20.8695H23.4785V24Z" fill="#A31524"/>
<path d="M23.4785 17.7385H34.239C33.5044 16.5398 32.5651 15.4803 31.47 14.608H23.4785V17.7385Z" fill="#A31524"/>
<path d="M24.0011 35.9999C26.8252 35.9999 29.421 35.0238 31.4709 33.3912H16.5312C18.5811 35.0238 21.1769 35.9999 24.0011 35.9999Z" fill="#A31524"/>
<path d="M13.762 30.2598H34.2394C34.8291 29.2975 35.2865 28.2457 35.5873 27.1294H12.4141C12.7149 28.2457 13.1722 29.2975 13.762 30.2598Z" fill="#A31524"/>
<path d="M17.5586 13.874H18.6522L17.635 14.613L18.0235 15.8087L17.0064 15.0697L15.9892 15.8087L16.3249 14.7757C15.4293 15.5217 14.6443 16.3958 13.9974 17.3696H14.3478L13.7003 17.84C13.5995 18.0083 13.5027 18.1792 13.41 18.3527L13.7192 19.3043L13.1423 18.8852C12.999 19.189 12.8678 19.4997 12.7499 19.8168L13.0905 20.8653H14.3478L13.3306 21.6043L13.7192 22.8L12.702 22.061L12.0928 22.5037C12.0318 22.9939 12 23.4932 12 24H24C24 17.3726 24 16.5913 24 12C21.6294 12 19.4196 12.6877 17.5586 13.874ZM18.0235 22.8L17.0064 22.061L15.9892 22.8L16.3778 21.6043L15.3606 20.8653H16.6179L17.0064 19.6695L17.3949 20.8653H18.6522L17.635 21.6043L18.0235 22.8ZM17.635 18.1086L18.0235 19.3043L17.0064 18.5654L15.9892 19.3043L16.3778 18.1086L15.3606 17.3696H16.6179L17.0064 16.1739L17.3949 17.3696H18.6522L17.635 18.1086ZM22.3279 22.8L21.3107 22.061L20.2936 22.8L20.6821 21.6043L19.665 20.8653H20.9222L21.3107 19.6695L21.6992 20.8653H22.9565L21.9393 21.6043L22.3279 22.8ZM21.9393 18.1086L22.3279 19.3043L21.3107 18.5654L20.2936 19.3043L20.6821 18.1086L19.665 17.3696H20.9222L21.3107 16.1739L21.6992 17.3696H22.9565L21.9393 18.1086ZM21.9393 14.613L22.3279 15.8087L21.3107 15.0697L20.2936 15.8087L20.6821 14.613L19.665 13.874H20.9222L21.3107 12.6782L21.6992 13.874H22.9565L21.9393 14.613Z" fill="#374176"/>
</g>
<defs>
<clipPath id="clip0_1451_7">
<rect width="24" height="24" fill="white" transform="translate(12 12)"/>
</clipPath>
</defs>
</svg>
