<svg width="100" height="100" viewBox="0 0 100 100" fill="none" xmlns="http://www.w3.org/2000/svg">
<path d="M100 50C100 22.3858 77.6142 0 50 0C22.3858 0 0 22.3858 0 50C0 77.6142 22.3858 100 50 100C77.6142 100 100 77.6142 100 50Z" fill="#9CFFDF"/>
<path d="M71.2463 60.1001C70.6202 64.6001 68.887 68.9798 66.048 72.7998C58.5319 68.1498 51.4293 62.5701 44.9056 56.0601C38.0355 49.2001 32.1974 41.6998 27.3926 33.7598C31.0377 31.1298 35.1758 29.4801 39.4361 28.8301L42.4134 46.0298C43.5028 51.5798 47.8508 55.9198 53.4155 57.0098L71.2463 60.1001Z" fill="white"/>
<path d="M65.5201 39.2402C68.3604 42.8402 70.1957 46.98 71.0249 51.27L51.3548 52.8901C48.4251 53.1301 45.9819 50.69 46.2235 47.77L47.7903 28.8301C52.0388 29.5001 56.1605 31.1498 59.7973 33.7598L49.4892 46.9702C48.9036 47.7202 48.9712 48.8002 49.648 49.4702C49.9864 49.8102 50.4231 50 50.8719 50.02C51.3196 50.05 51.7771 49.9199 52.1558 49.6299L65.5201 39.2402Z" fill="white"/>
</svg>
