<svg width="100" height="100" viewBox="0 0 100 100" fill="none" xmlns="http://www.w3.org/2000/svg">
<path d="M100 50C100 22.3858 77.6142 0 50 0C22.3858 0 0 22.3858 0 50C0 77.6142 22.3858 100 50 100C77.6142 100 100 77.6142 100 50Z" fill="#FFDF54"/>
<path d="M71.2466 60.1001C70.6206 64.6001 68.8876 68.9798 66.0486 72.7998C58.5326 68.1498 51.4296 62.5701 44.9056 56.0601C38.0356 49.2001 32.1976 41.6998 27.3926 33.7598C31.0376 31.1298 35.1756 29.4801 39.4366 28.8301L42.4136 46.0298C43.5026 51.5798 47.8506 55.9198 53.4156 57.0098L71.2466 60.1001Z" fill="white"/>
<path d="M65.5196 39.2402C68.3606 42.8402 70.1956 46.98 71.0246 51.27L51.3546 52.8901C48.4256 53.1301 45.9816 50.69 46.2236 47.77L47.7906 28.8301C52.0386 29.5001 56.1606 31.1498 59.7976 33.7598L49.4896 46.9702C48.9036 47.7202 48.9716 48.8002 49.6476 49.4702C49.9866 49.8102 50.4236 50 50.8716 50.02C51.3196 50.05 51.7776 49.9199 52.1556 49.6299L65.5196 39.2402Z" fill="white"/>
</svg>
