<svg width="44" height="44" viewBox="0 0 44 44" fill="none" xmlns="http://www.w3.org/2000/svg">
<path d="M43.5 22C43.5 10.1259 33.8741 0.5 22 0.5C10.1259 0.5 0.5 10.1259 0.5 22C0.5 33.8741 10.1259 43.5 22 43.5C33.8741 43.5 43.5 33.8741 43.5 22Z" stroke="#2E2E2E"/>
<path d="M13 28V22C13 19.6131 13.95 17.3239 15.64 15.636C17.32 13.9482 19.61 13 22 13C24.39 13 26.68 13.9482 28.36 15.636C30.05 17.3239 31 19.6131 31 22V28" stroke="#9CFFDF" stroke-width="2" stroke-linecap="round" stroke-linejoin="round"/>
<path d="M31 29C31 29.5304 30.79 30.0391 30.41 30.4142C30.04 30.7893 29.53 31 29 31H28C27.47 31 26.96 30.7893 26.59 30.4142C26.21 30.0391 26 29.5304 26 29V26C26 25.4696 26.21 24.9609 26.59 24.5858C26.96 24.2107 27.47 24 28 24H31V29ZM13 29C13 29.5304 13.21 30.0391 13.59 30.4142C13.96 30.7893 14.47 31 15 31H16C16.53 31 17.04 30.7893 17.41 30.4142C17.79 30.0391 18 29.5304 18 29V26C18 25.4696 17.79 24.9609 17.41 24.5858C17.04 24.2107 16.53 24 16 24H13V29Z" stroke="#9CFFDF" stroke-width="2" stroke-linecap="round" stroke-linejoin="round"/>
</svg>
