<svg width="117" height="29" viewBox="0 0 117 29" fill="none" xmlns="http://www.w3.org/2000/svg">
<path d="M28.2974 20.217C27.9024 23.0552 26.8104 25.8159 25.0214 28.2235C20.2844 25.2913 15.8094 21.7737 11.6974 17.6708C7.36842 13.35 3.68942 8.62572 0.661621 3.61852C2.95842 1.96052 5.56642 0.924719 8.25142 0.511719L10.1274 11.3516C10.8134 14.8512 13.5534 17.5858 17.0604 18.2711L28.2974 20.217Z" fill="#9CFFDF"/>
<path d="M24.686 7.07352C26.476 9.34382 27.632 11.9498 28.155 14.6545L15.759 15.6753C13.913 15.8272 12.373 14.2906 12.525 12.448L13.513 0.511719C16.19 0.937019 18.788 1.97322 21.079 3.62262L14.583 11.9443C14.214 12.4201 14.257 13.096 14.684 13.5217C14.897 13.7345 15.172 13.8514 15.455 13.8689C15.737 13.8871 16.025 13.8061 16.264 13.6217L24.686 7.07352Z" fill="#FFDF54"/>
<path d="M46.9332 3.13281H50.8072V24.1548H46.9332V22.3829C45.8522 23.7644 44.2602 24.5752 42.0682 24.5752C38.0442 24.5752 34.7402 21.1216 34.7402 16.6469C34.7402 12.1723 38.0442 8.71871 42.0682 8.71871C44.2602 8.71871 45.8522 9.52951 46.9332 10.911V3.13281ZM42.7892 20.8814C45.1612 20.8814 46.9332 19.1696 46.9332 16.6469C46.9332 14.1243 45.1612 12.4125 42.7892 12.4125C40.3862 12.4125 38.6142 14.1243 38.6142 16.6469C38.6142 19.1696 40.3862 20.8814 42.7892 20.8814Z" fill="white"/>
<path d="M64.8615 9.13915H68.7355V24.1549H64.8615V22.3829C63.7804 23.7344 62.1585 24.5753 59.9665 24.5753C55.9725 24.5753 52.6685 21.1216 52.6685 16.6469C52.6685 12.1723 55.9725 8.71875 59.9665 8.71875C62.1585 8.71875 63.7804 9.55956 64.8615 10.9111V9.13915ZM60.6875 20.8815C63.0895 20.8815 64.8615 19.1697 64.8615 16.6469C64.8615 14.1243 63.0895 12.4126 60.6875 12.4126C58.3145 12.4126 56.5425 14.1243 56.5425 16.6469C56.5425 19.1697 58.3145 20.8815 60.6875 20.8815Z" fill="white"/>
<path d="M87.9542 8.71875C91.3782 8.71875 93.6302 11.1513 93.6302 14.9052V24.1549H89.7562V15.1755C89.7562 13.4037 88.8552 12.3225 87.2342 12.3225C85.5222 12.3225 84.4412 13.4636 84.4412 15.716V24.1549H80.5672V15.1755C80.5672 13.4037 79.6662 12.3225 78.0442 12.3225C76.3922 12.3225 75.2212 13.4636 75.2212 15.716V24.1549H71.3472V9.13915H75.2212V10.7309C76.0622 9.46955 77.4732 8.71875 79.3952 8.71875C81.2572 8.71875 82.6392 9.49955 83.4802 10.881C84.4112 9.52955 85.9122 8.71875 87.9542 8.71875Z" fill="white"/>
<path d="M96.02 24.1544V9.13867H99.894V24.1544H96.02Z" fill="white"/>
<path d="M110.887 8.71875C114.071 8.71875 116.563 10.941 116.563 14.9352V24.1549H112.689V15.4158C112.689 13.3736 111.458 12.3225 109.716 12.3225C107.824 12.3225 106.413 13.4337 106.413 16.0464V24.1549H102.539V9.13915H106.413V10.821C107.314 9.46955 108.875 8.71875 110.887 8.71875Z" fill="white"/>
<path d="M97.2583 3.18462L98.8583 5.84091H99.1593L101.695 0.166016L97.2583 3.18462Z" fill="#FFDF54"/>
</svg>
