<svg width="75" height="32" viewBox="0 0 75 32" fill="none" xmlns="http://www.w3.org/2000/svg">
<path d="M15.9996 2.66675C13.3625 2.66672 10.7845 3.44871 8.59185 4.91381C6.39915 6.37892 4.69015 8.46133 3.68096 10.8977C2.67178 13.3341 2.40774 16.0151 2.92224 18.6015C3.43673 21.188 4.70666 23.5638 6.57141 25.4285C8.43617 27.2932 10.812 28.5631 13.3985 29.0775C15.9849 29.5919 18.6659 29.3278 21.1022 28.3186C23.5386 27.3094 25.621 25.6003 27.086 23.4076C28.5511 21.2148 29.333 18.6369 29.3329 15.9998C29.3289 12.4648 27.9228 9.07579 25.4232 6.57623C22.9236 4.07667 19.5345 2.67069 15.9996 2.66675ZM4.01197 15.9998C4.01064 14.3186 4.36433 12.6561 5.04989 11.1211L10.7683 26.7885C8.74275 25.806 7.03476 24.273 5.83988 22.365C4.645 20.457 4.01153 18.251 4.01197 15.9998ZM15.9996 27.9884C14.8532 27.9884 13.7126 27.8239 12.6129 27.4999L16.2101 17.0483L19.8945 27.1435C19.9185 27.2008 19.9473 27.2561 19.9804 27.3087C18.7016 27.7592 17.3555 27.9891 15.9996 27.9884ZM17.6516 10.3792C18.3733 10.3413 19.0237 10.2654 19.0237 10.2654C19.1533 10.2534 19.273 10.1909 19.3569 10.0914C19.4408 9.99195 19.4822 9.86345 19.4722 9.73368C19.4621 9.60392 19.4014 9.48332 19.3032 9.39794C19.2049 9.31256 19.0771 9.26925 18.9472 9.27738C18.9472 9.27738 17.0054 9.4298 15.7519 9.4298C14.5741 9.4298 12.5948 9.27738 12.5948 9.27738C12.4651 9.26965 12.3375 9.31318 12.2396 9.39859C12.1417 9.48401 12.0812 9.60447 12.0713 9.73403C12.0613 9.86358 12.1026 9.99187 12.1863 10.0913C12.27 10.1906 12.3894 10.2532 12.5188 10.2654C12.5188 10.2654 13.1301 10.3413 13.7761 10.3792L15.6438 15.4966L13.0198 23.3644L8.6547 10.3792C9.37693 10.3413 10.0266 10.2654 10.0266 10.2654C10.1561 10.2533 10.2757 10.1908 10.3595 10.0913C10.4433 9.9918 10.4846 9.86337 10.4745 9.73369C10.4645 9.60401 10.4038 9.48349 10.3057 9.39813C10.2075 9.31276 10.0798 9.26941 9.94995 9.27742C9.94995 9.27742 8.00872 9.42984 6.75513 9.42984C6.53019 9.42984 6.26489 9.42431 5.98365 9.41527C6.93673 7.96477 8.1935 6.7386 9.66703 5.82155C11.1406 4.9045 12.7957 4.31845 14.518 4.10393C16.2403 3.88941 17.9886 4.05155 19.6421 4.57912C21.2956 5.1067 22.8147 5.98712 24.0945 7.15951C24.0429 7.15633 23.9924 7.14991 23.9394 7.14991C23.3907 7.16625 22.8708 7.39929 22.4935 7.79801C22.1163 8.19673 21.9123 8.72867 21.9263 9.27742C22.0519 10.3053 22.4595 11.2784 23.1038 12.089C23.7338 13.0779 24.076 14.2227 24.0921 15.3951C23.9676 16.7226 23.6606 18.0267 23.18 19.2704L21.984 23.2655L17.6516 10.3792ZM22.0263 26.3614L25.6877 15.7751C26.2689 14.4171 26.5786 12.9584 26.5994 11.4814C26.6001 11.0692 26.5732 10.6573 26.5188 10.2487C28.0169 12.9903 28.3857 16.2084 27.5466 19.2179C26.7075 22.2274 24.7268 24.7904 22.0263 26.3614Z" fill="white"/>
<g clip-path="url(#clip0_961_3405)">
<path d="M55 29.5C57.484 29.5 59.5 27.484 59.5 25V20.5H55C52.516 20.5 50.5 22.516 50.5 25C50.5 27.484 52.516 29.5 55 29.5Z" fill="#0ACF83"/>
<path d="M50.5 16C50.5 13.516 52.516 11.5 55 11.5H59.5V20.5H55C52.516 20.5 50.5 18.484 50.5 16Z" fill="#A259FF"/>
<path d="M50.5 7C50.5 4.516 52.516 2.5 55 2.5H59.5V11.5H55C52.516 11.5 50.5 9.484 50.5 7Z" fill="#F24E1E"/>
<path d="M59.5 2.5H64C66.484 2.5 68.5 4.516 68.5 7C68.5 9.484 66.484 11.5 64 11.5H59.5V2.5Z" fill="#FF7262"/>
<path d="M68.5 16C68.5 18.484 66.484 20.5 64 20.5C61.516 20.5 59.5 18.484 59.5 16C59.5 13.516 61.516 11.5 64 11.5C66.484 11.5 68.5 13.516 68.5 16Z" fill="#1ABCFE"/>
</g>
<defs>
<clipPath id="clip0_961_3405">
<rect width="27" height="27" fill="white" transform="translate(46 2.5)"/>
</clipPath>
</defs>
</svg>
