<svg width="117" height="29" viewBox="0 0 117 29" fill="none" xmlns="http://www.w3.org/2000/svg">
<path d="M28.296 20.2202C27.901 23.0502 26.809 25.8102 25.0199 28.2202C20.2834 25.2902 15.8075 21.7699 11.6965 17.6699C7.36706 13.3499 3.68806 8.62012 0.660156 3.62012C2.95726 1.96012 5.56486 0.919766 8.24966 0.509766L10.126 11.3501C10.8124 14.8501 13.5524 17.58 17.0592 18.27L28.296 20.2202Z" fill="#9CFFDF"/>
<path d="M24.6862 7.06982C26.4765 9.33982 27.6325 11.9499 28.1555 14.6499L15.7596 15.6699C13.9134 15.8299 12.3738 14.2902 12.526 12.4502L13.5133 0.509766C16.1906 0.939766 18.7881 1.97012 21.0799 3.62012L14.584 11.9399C14.2149 12.4199 14.2575 13.09 14.684 13.52C14.8973 13.73 15.1725 13.8501 15.4553 13.8701C15.7375 13.8901 16.0258 13.8101 16.2644 13.6201L24.6862 7.06982Z" fill="#FFDF54"/>
<path d="M46.9332 3.12891H50.8072V24.1489H46.9332V22.3789C45.8522 23.7589 44.2602 24.5688 42.0682 24.5688C38.0442 24.5688 34.7402 21.1189 34.7402 16.6489C34.7402 12.1689 38.0442 8.71924 42.0682 8.71924C44.2602 8.71924 45.8522 9.52918 46.9332 10.9092V3.12891ZM42.7892 20.8789C45.1612 20.8789 46.9332 19.1689 46.9332 16.6489C46.9332 14.1189 45.1612 12.4092 42.7892 12.4092C40.3862 12.4092 38.6142 14.1189 38.6142 16.6489C38.6142 19.1689 40.3862 20.8789 42.7892 20.8789Z" fill="white"/>
<path d="M64.861 9.14062H68.735V24.1504H64.861V22.3804C63.78 23.7304 62.158 24.5703 59.966 24.5703C55.972 24.5703 52.668 21.1204 52.668 16.6504C52.668 12.1704 55.972 8.7207 59.966 8.7207C62.158 8.7207 63.78 9.56064 64.861 10.9106V9.14062ZM60.687 20.8804C63.089 20.8804 64.861 19.1704 64.861 16.6504C64.861 14.1204 63.089 12.4106 60.687 12.4106C58.314 12.4106 56.542 14.1204 56.542 16.6504C56.542 19.1704 58.314 20.8804 60.687 20.8804Z" fill="white"/>
<path d="M87.9547 8.7207C91.3787 8.7207 93.6307 11.1504 93.6307 14.9004V24.1504H89.7567V15.1704C89.7567 13.4004 88.8556 12.3203 87.2346 12.3203C85.5226 12.3203 84.4417 13.4604 84.4417 15.7104V24.1504H80.5677V15.1704C80.5677 13.4004 79.6667 12.3203 78.0447 12.3203C76.3927 12.3203 75.2216 13.4604 75.2216 15.7104V24.1504H71.3477V9.14062H75.2216V10.7305C76.0626 9.47047 77.4737 8.7207 79.3957 8.7207C81.2577 8.7207 82.6397 9.50037 83.4807 10.8804C84.4117 9.53037 85.9127 8.7207 87.9547 8.7207Z" fill="white"/>
<path d="M96.0195 24.1504V9.14062H99.8935V24.1504H96.0195Z" fill="white"/>
<path d="M110.887 8.7207C114.071 8.7207 116.563 10.9407 116.563 14.9307V24.1504H112.689V15.4106C112.689 13.3706 111.458 12.3203 109.716 12.3203C107.824 12.3203 106.413 13.4303 106.413 16.0503V24.1504H102.539V9.14062H106.413V10.8203C107.314 9.47031 108.875 8.7207 110.887 8.7207Z" fill="white"/>
<path d="M97.2578 3.18018L98.8578 5.83984H99.1588L101.695 0.169922L97.2578 3.18018Z" fill="#FFDF54"/>
</svg>
