<svg width="759" height="850" viewBox="0 0 759 850" fill="none" xmlns="http://www.w3.org/2000/svg">
<g filter="url(#filter0_f_957_986)">
<rect x="170.622" y="330.693" width="505" height="680.64" transform="rotate(-18.5017 170.622 330.693)" fill="url(#paint0_linear_957_986)"/>
</g>
<g clip-path="url(#clip0_957_986)">
<rect x="145.426" y="312.121" width="542.633" height="731.362" rx="40" transform="rotate(-18.5017 145.426 312.121)" fill="url(#paint1_linear_957_986)"/>
<rect x="364.427" y="336.906" width="143" height="143" rx="20" transform="rotate(-18.5017 364.427 336.906)" fill="url(#paint2_linear_957_986)" fill-opacity="0.07"/>
<path d="M447.521 420.862C446.429 408.383 447.052 407.196 458.193 400.507C445.27 401.871 444.058 401.298 437.42 390.675C438.512 403.154 437.889 404.341 426.748 411.03C439.671 409.666 440.883 410.239 447.521 420.862ZM469.924 389.122C468.365 371.112 469.262 369.367 485.338 359.721C466.694 361.694 464.928 360.84 455.333 345.519C456.892 363.529 455.994 365.275 439.918 374.92C458.562 372.947 460.351 373.794 469.924 389.122Z" stroke="url(#paint3_linear_957_986)" stroke-width="3" stroke-miterlimit="2.613" stroke-linecap="round" stroke-linejoin="round"/>
<path d="M312.011 604.363L296.462 557.895L302.636 555.83L318.185 602.297L312.011 604.363ZM329.702 560.576C333.597 559.273 337.131 559.468 340.306 561.161C343.466 562.81 345.749 565.737 347.156 569.941L353.976 590.32L348.2 592.253L341.492 572.206C340.604 569.55 339.177 567.715 337.213 566.699C335.25 565.683 332.984 565.604 330.417 566.463C327.452 567.455 325.418 569.169 324.314 571.606C323.195 573.998 323.243 577.008 324.457 580.637L330.344 598.228L324.569 600.161L313.462 566.97L319.237 565.037L320.836 569.817C321.879 565.285 324.834 562.205 329.702 560.576ZM360.273 535.583L362.139 541.159C356.134 542.627 354.058 546.127 355.909 551.659L356.242 552.654L365.004 549.722L366.87 555.298L358.108 558.23L367.349 585.845L361.573 587.778L352.333 560.163L347.022 561.94L345.156 556.364L350.467 554.587L350.133 553.591C348.623 549.077 348.751 545.27 350.519 542.169C352.271 539.023 355.523 536.828 360.273 535.583ZM395.203 559.178L389.316 541.587L395.091 539.654L406.198 572.845L400.423 574.778L398.824 569.998C397.781 574.53 394.826 577.61 389.958 579.239C386.063 580.542 382.536 580.37 379.376 578.72C376.201 577.027 373.911 574.078 372.504 569.874L365.684 549.495L371.459 547.562L378.168 567.61C379.056 570.265 380.483 572.1 382.447 573.116C384.41 574.132 386.676 574.211 389.243 573.352C392.208 572.36 394.25 570.668 395.368 568.276C396.472 565.839 396.417 562.807 395.203 559.178ZM408.809 545.029C409.52 547.153 412.266 548.08 417.047 547.808C418.803 547.615 420.301 547.532 421.541 547.56C422.81 547.529 424.234 547.667 425.813 547.975C427.437 548.269 428.81 548.916 429.933 549.918C431.056 550.921 431.898 552.263 432.461 553.944C433.468 556.954 433.102 559.758 431.364 562.357C429.626 564.956 426.964 566.856 423.38 568.055C420.193 569.122 417.198 569.361 414.393 568.774C411.618 568.128 409.344 566.773 407.571 564.709L411.594 560.189C412.658 561.604 414.076 562.532 415.847 562.973C417.619 563.414 419.522 563.293 421.558 562.612C423.55 561.946 425.017 561.036 425.96 559.884C426.903 558.732 427.123 557.404 426.619 555.899C425.864 553.642 423.126 552.738 418.404 553.186C416.81 553.276 415.6 553.337 414.774 553.367C413.947 553.398 412.774 553.347 411.254 553.216C409.778 553.07 408.604 552.799 407.733 552.401C406.847 551.96 405.939 551.304 405.008 550.434C404.107 549.506 403.434 548.378 402.99 547.05C402.027 544.173 402.342 541.436 403.932 538.836C405.567 536.223 408.066 534.353 411.43 533.227C414.129 532.324 416.726 532.144 419.221 532.687C421.745 533.171 423.901 534.32 425.689 536.133L421.754 540.476C419.611 538.043 416.769 537.42 413.229 538.604C411.547 539.167 410.265 540.039 409.381 541.221C408.541 542.388 408.35 543.657 408.809 545.029ZM465.646 537.451L437.832 546.758C439.385 549.487 441.504 551.336 444.191 552.307C446.863 553.234 449.793 553.164 452.979 552.098C457.36 550.632 460.006 547.95 460.916 544.053L466.762 545.197C465.16 551.294 461.129 555.423 454.668 557.585C449.446 559.333 444.605 559.132 440.146 556.983C435.746 554.715 432.709 551.081 431.035 546.08C429.347 541.035 429.57 536.335 431.705 531.979C433.825 527.579 437.452 524.52 442.585 522.802C447.453 521.173 451.992 521.573 456.2 524.003C460.424 526.33 463.35 529.928 464.979 534.796C465.26 535.636 465.482 536.522 465.646 537.451ZM444.407 528.245C441.353 529.267 439.075 530.989 437.573 533.411C436.115 535.818 435.638 538.585 436.144 541.713L458.315 534.294C456.807 531.404 454.797 529.443 452.287 528.413C449.777 527.383 447.151 527.327 444.407 528.245ZM492.382 513.446L486.029 494.461L491.805 492.528L507.354 538.996L501.579 540.928L499.668 535.219C498.302 540.548 494.853 544.138 489.321 545.989C484.63 547.559 480.107 547.203 475.751 544.921C471.336 542.609 468.313 539.019 466.685 534.151C465.07 529.327 465.331 524.664 467.465 520.16C469.6 515.657 472.99 512.627 477.637 511.073C483.169 509.221 488.084 510.013 492.382 513.446ZM488.186 540.169C491.549 539.044 493.981 536.975 495.483 533.962C496.955 530.862 497.136 527.652 496.025 524.333C494.9 520.969 492.831 518.537 489.819 517.035C486.792 515.489 483.597 515.279 480.233 516.404C476.914 517.515 474.511 519.599 473.024 522.655C471.522 525.667 471.334 528.855 472.46 532.218C473.57 535.537 475.647 537.992 478.689 539.582C481.701 541.084 484.866 541.28 488.186 540.169ZM555.879 513.974L554.717 486.239L560.758 484.217L561.576 520.852L555.668 522.828L539.682 500.866L540.134 528.026L534.226 530.003L512.83 500.255L518.871 498.234L534.614 521.016L534.006 493.169L539.582 491.303L555.879 513.974ZM564.614 476.21C563.507 476.58 562.452 476.515 561.448 476.015C560.444 475.514 559.764 474.733 559.409 473.671C559.053 472.608 559.126 471.575 559.626 470.571C560.112 469.523 560.908 468.814 562.015 468.443C563.077 468.088 564.117 468.183 565.136 468.728C566.14 469.228 566.82 470.009 567.175 471.072C567.531 472.134 567.458 473.167 566.958 474.171C566.457 475.175 565.676 475.855 564.614 476.21ZM580.596 514.487L574.821 516.419L563.714 483.228L569.489 481.296L580.596 514.487ZM593.369 473.305L595.235 478.881L586.406 481.835L592.426 499.825C592.974 501.462 593.676 502.531 594.532 503.032C595.418 503.474 596.532 503.495 597.875 503.095C599.203 502.65 600.825 502.058 602.743 501.318L604.475 506.496C599.608 508.863 595.75 509.686 592.901 508.967C590.096 508.232 588.013 505.829 586.65 501.758L580.631 483.768L574.059 485.967L572.193 480.391L578.765 478.192L576.232 470.624L581.43 466.966L584.54 476.259L593.369 473.305ZM613.459 465.623C617.354 464.319 620.888 464.514 624.063 466.208C627.223 467.857 629.507 470.784 630.913 474.988L637.733 495.367L631.958 497.3L625.249 477.252C624.361 474.597 622.934 472.761 620.971 471.745C619.007 470.729 616.741 470.651 614.175 471.51C611.209 472.502 609.175 474.216 608.071 476.653C606.952 479.045 607 482.055 608.214 485.684L614.101 503.275L608.326 505.208L592.776 458.74L598.552 456.808L604.594 474.864C605.636 470.332 608.591 467.252 613.459 465.623ZM694.188 476.476L687.616 478.675L680.344 469.519L659.434 476.516L659.138 488.204L652.566 490.403L654.342 438.138L661.313 435.806L694.188 476.476ZM660.26 444.352L659.626 470.03L676.288 464.455L660.26 444.352ZM696.682 475.641L681.133 429.174L687.306 427.108L702.856 473.575L696.682 475.641Z" fill="white"/>
<path d="M394.723 618.865L386.43 606.877L387.834 606.408L394.954 616.784L394.567 604.154L396.122 603.634L403.413 613.954L402.855 601.381L404.258 600.911L404.851 615.476L403.258 616.009L395.928 605.639L396.316 618.332L394.723 618.865ZM410.41 602.818C411.813 602.348 413.112 602.469 414.306 603.18C415.509 603.874 416.336 604.898 416.789 606.251C416.836 606.39 416.888 606.59 416.948 606.852L408.622 609.638C409.07 610.556 409.73 611.186 410.603 611.526C411.485 611.85 412.432 611.843 413.443 611.504C414.164 611.263 414.735 610.91 415.156 610.446C415.585 609.965 415.852 609.44 415.957 608.87L417.273 609.147C417.08 609.957 416.689 610.678 416.099 611.311C415.51 611.945 414.753 612.416 413.83 612.724C412.338 613.224 410.968 613.162 409.719 612.539C408.47 611.917 407.605 610.885 407.122 609.443C406.649 608.027 406.715 606.691 407.32 605.433C407.926 604.176 408.956 603.304 410.41 602.818ZM410.816 604.032C409.83 604.362 409.101 604.936 408.63 605.754C408.167 606.556 408.029 607.446 408.215 608.424L415.29 606.057C414.829 605.1 414.183 604.451 413.352 604.111C412.521 603.77 411.676 603.744 410.816 604.032ZM428.429 592.823L429.681 592.404L434.124 605.681L432.872 606.099L432.25 604.241C431.843 605.924 430.799 607.046 429.117 607.609C427.764 608.062 426.446 607.968 425.164 607.329C423.894 606.685 423.026 605.668 422.561 604.277C422.095 602.886 422.176 601.552 422.803 600.274C423.442 598.991 424.438 598.123 425.791 597.671C427.473 597.108 428.983 597.376 430.321 598.475L428.429 592.823ZM425.788 606.171C426.75 606.651 427.756 606.715 428.806 606.364C429.855 606.012 430.619 605.356 431.099 604.394C431.574 603.419 431.636 602.407 431.285 601.358C430.934 600.308 430.278 599.544 429.316 599.064C428.349 598.572 427.342 598.502 426.292 598.853C425.243 599.204 424.48 599.867 424.005 600.841C423.526 601.803 423.461 602.809 423.813 603.858C424.164 604.908 424.822 605.679 425.788 606.171ZM437.716 593.68C439.12 593.211 440.418 593.331 441.612 594.043C442.815 594.737 443.643 595.761 444.095 597.113C444.142 597.253 444.195 597.453 444.254 597.714L435.928 600.5C436.376 601.419 437.036 602.049 437.91 602.389C438.791 602.713 439.738 602.705 440.749 602.367C441.47 602.126 442.041 601.773 442.462 601.309C442.892 600.827 443.159 600.302 443.263 599.733L444.579 600.01C444.386 600.819 443.995 601.541 443.405 602.174C442.816 602.807 442.06 603.278 441.137 603.587C439.645 604.086 438.274 604.025 437.025 603.402C435.777 602.779 434.911 601.747 434.429 600.306C433.955 598.89 434.021 597.553 434.626 596.296C435.232 595.039 436.262 594.167 437.716 593.68ZM438.122 594.894C437.136 595.224 436.407 595.798 435.936 596.617C435.473 597.419 435.335 598.308 435.522 599.286L442.596 596.919C442.135 595.963 441.49 595.314 440.659 594.973C439.828 594.633 438.982 594.606 438.122 594.894ZM450.755 589.57L452.082 589.126L451.368 599.91L449.85 600.418L442.789 592.236L444.117 591.792L450.171 598.855L450.755 589.57ZM457.34 587.114C458.744 586.644 460.043 586.765 461.237 587.476C462.439 588.17 463.267 589.194 463.719 590.547C463.766 590.686 463.819 590.886 463.878 591.147L455.552 593.933C456 594.852 456.661 595.482 457.534 595.822C458.415 596.146 459.362 596.138 460.374 595.8C461.094 595.559 461.665 595.206 462.086 594.742C462.516 594.261 462.783 593.735 462.888 593.166L464.203 593.443C464.01 594.253 463.619 594.974 463.03 595.607C462.44 596.24 461.684 596.711 460.761 597.02C459.269 597.519 457.898 597.458 456.65 596.835C455.401 596.213 454.535 595.181 454.053 593.739C453.579 592.323 453.645 590.986 454.251 589.729C454.856 588.472 455.886 587.6 457.34 587.114ZM457.746 588.327C456.76 588.657 456.031 589.232 455.56 590.05C455.097 590.852 454.959 591.742 455.146 592.72L462.22 590.352C461.76 589.396 461.114 588.747 460.283 588.407C459.452 588.066 458.606 588.04 457.746 588.327ZM467.095 594.647L462.462 580.802L463.714 580.383L468.347 594.229L467.095 594.647ZM478.36 589.549C477.717 590.819 476.7 591.687 475.309 592.152C473.918 592.617 472.577 592.539 471.286 591.916C470.003 591.277 469.127 590.256 468.658 588.852C468.188 587.448 468.275 586.112 468.919 584.842C469.571 583.555 470.592 582.679 471.983 582.214C473.374 581.748 474.711 581.835 475.993 582.475C477.284 583.097 478.164 584.11 478.634 585.514C479.104 586.917 479.012 588.262 478.36 589.549ZM471.885 590.746C472.847 591.225 473.853 591.289 474.902 590.938C475.952 590.587 476.716 589.93 477.196 588.969C477.671 587.994 477.733 586.982 477.382 585.933C477.031 584.883 476.374 584.119 475.413 583.639C474.446 583.147 473.439 583.076 472.389 583.428C471.34 583.779 470.577 584.442 470.102 585.416C469.622 586.378 469.558 587.384 469.909 588.433C470.261 589.483 470.919 590.253 471.885 590.746ZM483.959 578.206C485.312 577.753 486.624 577.849 487.893 578.492C489.176 579.132 490.05 580.147 490.515 581.538C490.981 582.929 490.894 584.265 490.254 585.548C489.628 586.826 488.638 587.692 487.285 588.144C485.603 588.707 484.093 588.439 482.755 587.34L484.647 592.992L483.395 593.411L478.952 580.135L480.204 579.716L480.826 581.574C481.233 579.892 482.277 578.769 483.959 578.206ZM483.767 586.77C484.729 587.249 485.734 587.313 486.784 586.962C487.833 586.611 488.598 585.955 489.077 584.993C489.553 584.018 489.615 583.006 489.264 581.957C488.912 580.907 488.256 580.143 487.294 579.663C486.328 579.171 485.32 579.1 484.271 579.452C483.221 579.803 482.459 580.466 481.983 581.44C481.504 582.402 481.44 583.408 481.791 584.457C482.142 585.507 482.801 586.278 483.767 586.77ZM502.2 572.355L503.528 571.911L502.934 583.625C502.881 584.683 502.601 585.592 502.096 586.352C501.608 587.12 500.936 587.612 500.08 587.828L499.687 586.652C500.867 586.397 501.513 585.45 501.625 583.81L501.675 583.139L494.234 575.021L495.562 574.577L501.787 581.33L502.2 572.355ZM515.201 577.221C514.557 578.491 513.54 579.359 512.149 579.824C510.758 580.29 509.417 580.211 508.126 579.588C506.844 578.949 505.968 577.928 505.498 576.524C505.029 575.121 505.116 573.784 505.759 572.514C506.411 571.227 507.433 570.351 508.824 569.886C510.214 569.42 511.551 569.507 512.834 570.147C514.125 570.769 515.005 571.782 515.474 573.186C515.944 574.589 515.853 575.934 515.201 577.221ZM508.726 578.418C509.688 578.897 510.694 578.961 511.743 578.61C512.792 578.259 513.557 577.603 514.037 576.641C514.512 575.666 514.574 574.654 514.223 573.605C513.872 572.555 513.215 571.791 512.253 571.311C511.287 570.819 510.279 570.748 509.23 571.1C508.18 571.451 507.418 572.114 506.943 573.088C506.463 574.05 506.399 575.056 506.75 576.105C507.101 577.155 507.76 577.926 508.726 578.418ZM522.469 565.573L523.721 565.154L526.894 574.637L525.642 575.056L525.147 573.576C524.82 574.951 523.948 575.876 522.532 576.35C521.382 576.735 520.355 576.692 519.452 576.22C518.558 575.732 517.911 574.894 517.514 573.706L515.565 567.883L516.817 567.464L518.765 573.287C519.049 574.134 519.49 574.717 520.089 575.037C520.701 575.353 521.418 575.373 522.24 575.098C523.15 574.793 523.795 574.261 524.173 573.502C524.548 572.73 524.534 571.743 524.132 570.542L522.469 565.573ZM527.958 565.486C528.154 564.141 528.961 563.232 530.377 562.758L530.783 563.972C529.923 564.259 529.293 564.751 528.894 565.447C528.494 566.144 528.476 567.035 528.84 568.123L530.604 573.395L529.352 573.814L526.179 564.331L527.431 563.912L527.958 565.486ZM537.015 558.175C536.897 558.411 536.711 558.571 536.459 558.656C536.206 558.74 535.961 558.724 535.725 558.606C535.489 558.488 535.328 558.303 535.244 558.05C535.159 557.797 535.175 557.553 535.293 557.316C535.411 557.08 535.596 556.92 535.849 556.835C536.102 556.75 536.347 556.767 536.583 556.885C536.819 557.003 536.98 557.188 537.064 557.441C537.149 557.694 537.132 557.938 537.015 558.175ZM539.679 570.359L536.505 560.876L537.757 560.457L540.931 569.94L539.679 570.359ZM547.11 553.109L548.362 552.69L552.804 565.967L551.553 566.385L550.931 564.527C550.524 566.21 549.479 567.332 547.798 567.895C546.445 568.348 545.127 568.255 543.844 567.615C542.575 566.971 541.707 565.954 541.242 564.563C540.776 563.173 540.857 561.838 541.484 560.56C542.123 559.277 543.119 558.41 544.472 557.957C546.154 557.394 547.663 557.662 549.001 558.761L547.11 553.109ZM544.469 566.457C545.431 566.937 546.437 567.001 547.486 566.65C548.536 566.298 549.3 565.642 549.78 564.68C550.255 563.705 550.317 562.693 549.966 561.644C549.615 560.594 548.958 559.83 547.996 559.35C547.03 558.858 546.022 558.788 544.973 559.139C543.924 559.49 543.161 560.153 542.686 561.127C542.206 562.089 542.142 563.095 542.493 564.145C542.844 565.194 543.503 565.965 544.469 566.457ZM556.397 553.966C557.8 553.497 559.099 553.617 560.293 554.329C561.496 555.023 562.323 556.047 562.776 557.399C562.823 557.539 562.876 557.739 562.935 558L554.609 560.786C555.057 561.705 555.717 562.335 556.59 562.675C557.472 562.999 558.419 562.991 559.43 562.653C560.151 562.412 560.722 562.059 561.143 561.595C561.572 561.113 561.84 560.588 561.944 560.019L563.26 560.296C563.067 561.105 562.676 561.827 562.086 562.46C561.497 563.093 560.74 563.564 559.817 563.873C558.325 564.372 556.955 564.311 555.706 563.688C554.457 563.065 553.592 562.033 553.11 560.592C552.636 559.176 552.702 557.839 553.307 556.582C553.913 555.325 554.943 554.453 556.397 553.966ZM556.803 555.18C555.817 555.51 555.088 556.085 554.617 556.903C554.154 557.705 554.016 558.595 554.202 559.572L561.277 557.205C560.816 556.249 560.17 555.6 559.339 555.259C558.508 554.919 557.663 554.892 556.803 555.18ZM571.134 549.288L572.385 548.869L575.559 558.352L574.307 558.771L573.685 556.913C573.278 558.595 572.234 559.718 570.552 560.281C569.199 560.734 567.881 560.64 566.599 560.001C565.329 559.357 564.461 558.34 563.996 556.949C563.53 555.558 563.611 554.224 564.238 552.945C564.877 551.663 565.873 550.795 567.226 550.343C568.908 549.78 570.418 550.048 571.756 551.147L571.134 549.288ZM567.224 558.843C568.185 559.322 569.191 559.386 570.241 559.035C571.29 558.684 572.055 558.028 572.534 557.066C573.009 556.091 573.072 555.079 572.72 554.03C572.369 552.98 571.713 552.216 570.751 551.736C569.785 551.244 568.777 551.173 567.727 551.525C566.678 551.876 565.915 552.539 565.44 553.513C564.961 554.475 564.896 555.481 565.248 556.53C565.599 557.58 566.257 558.351 567.224 558.843ZM576.664 550.2C576.808 550.63 577.112 550.908 577.576 551.034C578.04 551.16 578.567 551.202 579.157 551.159C579.747 551.116 580.344 551.092 580.947 551.087C581.545 551.07 582.102 551.2 582.617 551.477C583.127 551.742 583.49 552.197 583.706 552.842C583.977 553.651 583.875 554.417 583.399 555.138C582.936 555.856 582.199 556.384 581.187 556.722C580.277 557.027 579.431 557.085 578.651 556.896C577.884 556.703 577.266 556.326 576.797 555.766L577.65 554.784C577.992 555.218 578.439 555.505 578.991 555.643C579.552 555.765 580.149 555.72 580.781 555.508C581.401 555.301 581.879 555.007 582.216 554.627C582.548 554.235 582.628 553.779 582.454 553.261C582.311 552.831 582.007 552.553 581.543 552.427C581.079 552.301 580.552 552.26 579.961 552.303C579.371 552.345 578.777 552.376 578.178 552.393C577.575 552.398 577.018 552.268 576.508 552.003C575.993 551.725 575.628 551.264 575.412 550.619C575.154 549.848 575.242 549.102 575.675 548.38C576.121 547.654 576.812 547.135 577.748 546.822C578.519 546.564 579.255 546.514 579.955 546.674C580.651 546.82 581.237 547.144 581.714 547.646L580.874 548.602C580.211 547.839 579.305 547.651 578.154 548.036C577.61 548.218 577.187 548.507 576.884 548.904C576.576 549.288 576.503 549.72 576.664 550.2ZM599.239 539.883L600.528 539.452L600.781 549.912L599.415 550.369L594.411 543.545L594.522 552.007L593.157 552.464L587.062 543.958L588.352 543.526L593.319 550.617L593.17 541.914L594.421 541.495L599.54 548.535L599.239 539.883ZM602.736 536.182C602.618 536.419 602.433 536.579 602.18 536.664C601.927 536.748 601.682 536.732 601.446 536.614C601.21 536.496 601.049 536.311 600.965 536.058C600.88 535.805 600.897 535.56 601.014 535.324C601.132 535.088 601.318 534.928 601.57 534.843C601.823 534.758 602.068 534.775 602.304 534.893C602.54 535.01 602.701 535.196 602.785 535.449C602.87 535.702 602.853 535.946 602.736 536.182ZM605.4 548.367L602.227 538.884L603.478 538.465L606.652 547.948L605.4 548.367ZM611.377 537.171L608.646 538.085L610.569 543.832C610.743 544.35 610.969 544.69 611.247 544.849C611.521 544.997 611.863 545.009 612.272 544.886C612.676 544.751 613.178 544.569 613.776 544.34L614.144 545.441C612.884 546.087 611.854 546.327 611.052 546.159C610.264 545.987 609.685 545.351 609.317 544.251L607.394 538.504L605.403 539.17L604.997 537.957L606.988 537.29L606.227 535.014L607.351 534.216L608.24 536.871L610.971 535.957L611.377 537.171ZM617.23 533.61C618.38 533.225 619.403 533.276 620.297 533.765C621.2 534.236 621.85 535.066 622.248 536.254L624.197 542.077L622.945 542.496L620.996 536.673C620.713 535.826 620.265 535.245 619.653 534.929C619.054 534.609 618.344 534.587 617.522 534.862C616.612 535.167 615.969 535.705 615.595 536.477C615.216 537.236 615.228 538.217 615.63 539.418L617.293 544.387L616.041 544.806L611.598 531.529L612.85 531.111L614.614 536.383C614.942 535.008 615.813 534.084 617.23 533.61ZM640.007 536.786L637.683 533.936L631.386 536.044L631.245 539.718L629.841 540.188L630.5 525.204L631.866 524.747L641.411 536.316L640.007 536.786ZM631.441 534.633L636.79 532.843L631.735 526.626L631.441 534.633ZM638.483 522.533L639.811 522.089L644.253 535.365L642.926 535.809L638.483 522.533ZM648.473 533.827C648.338 534.097 648.125 534.28 647.834 534.378C647.544 534.475 647.263 534.456 646.993 534.322C646.723 534.187 646.54 533.974 646.442 533.684C646.345 533.393 646.364 533.112 646.498 532.842C646.633 532.572 646.846 532.389 647.136 532.291C647.427 532.194 647.708 532.213 647.978 532.347C648.248 532.482 648.431 532.695 648.529 532.986C648.626 533.276 648.607 533.557 648.473 533.827Z" fill="#959595"/>
<g clip-path="url(#clip1_957_986)">
<rect x="412.423" y="683.594" width="272" height="56" rx="8" transform="rotate(-18.5017 412.423 683.594)" fill="white" fill-opacity="0.12"/>
<g clip-path="url(#clip2_957_986)">
<rect x="430.142" y="692.427" width="28" height="28" transform="rotate(-18.5017 430.142 692.427)" fill="#FFCA28"/>
<path d="M453.653 709.117L455.175 707.169C455.489 707.599 456.842 708.418 458.067 708.008C459.293 707.597 459.638 706.738 459.489 706.294C459.085 705.085 457.69 705.077 457.021 705.073C456.912 705.073 456.822 705.072 456.759 705.067C456.726 705.064 456.678 705.062 456.616 705.059C455.862 705.028 453.08 704.911 452.167 702.179C451.16 699.171 453.947 697.853 454.604 697.634C455.033 697.49 457.116 696.852 458.792 698.44L457.338 700.399C456.64 699.695 455.856 699.648 455.431 699.791C454.381 700.142 454.42 700.985 454.537 701.336C454.866 702.32 456.155 702.379 457.243 702.428C457.528 702.441 457.799 702.454 458.035 702.482C459.252 702.627 461.07 702.922 461.926 705.479C462.354 706.759 461.974 709.192 459.269 710.097C455.637 711.313 453.944 709.454 453.653 709.117Z" fill="#3E3E3E"/>
<path d="M444.255 712.547L445.86 710.572C446.181 711 447.098 711.679 447.998 711.378C448.899 711.077 449.05 709.998 448.902 709.555L445.984 700.835L448.49 699.996L451.407 708.716C451.851 709.905 451.988 712.534 449.045 713.519C446.338 714.425 444.674 713.193 444.255 712.547Z" fill="#3E3E3E"/>
</g>
<g clip-path="url(#clip3_957_986)">
<path d="M494.035 672.225C493.757 671.391 492.823 671.704 492.443 671.947C492.871 671.294 493.589 671.177 493.877 671.235L500.405 672.108C501.027 672.191 501.548 672.623 501.748 673.221L507.801 691.309C508.004 691.915 507.84 692.582 507.381 693.022L502.94 697.283C502.629 697.561 501.97 698.21 501.125 697.89C502.007 697.769 502.258 697.028 502.194 696.606L494.035 672.225Z" fill="url(#paint4_linear_957_986)"/>
<path d="M492.506 671.909C492.917 671.675 493.771 671.434 494.036 672.225L496.119 678.451L483.421 697.002C483.199 697.326 482.769 697.429 482.424 697.24L480.037 695.93C479.663 695.725 479.527 695.254 479.734 694.881L492.443 671.947L492.506 671.909Z" fill="url(#paint5_linear_957_986)"/>
<path d="M500.145 690.484L478.84 683.311C478.467 683.186 478.062 683.363 477.9 683.721L476.782 686.204C476.607 686.593 476.782 687.051 477.172 687.225L501.125 697.89C502.007 697.769 502.258 697.028 502.194 696.606L500.145 690.484Z" fill="url(#paint6_linear_957_986)"/>
</g>
<g clip-path="url(#clip4_957_986)">
<path fill-rule="evenodd" clip-rule="evenodd" d="M531.627 658.468C529.543 659.165 528.401 661.366 529.076 663.383L529.923 665.912L536.452 663.727L536.687 664.429L527.256 667.585C525.172 668.282 524.031 670.483 524.706 672.5L526.539 677.98C527.214 679.997 529.45 681.067 531.534 680.37L533.71 679.642L532.676 676.551C532.001 674.533 533.143 672.333 535.226 671.636L542.191 669.305C543.954 668.715 544.92 666.853 544.349 665.146L542.28 658.965C541.605 656.947 539.369 655.877 537.285 656.574L531.627 658.468ZM532.26 663.255C532.982 663.013 533.377 662.252 533.143 661.553C532.91 660.855 532.135 660.485 531.414 660.726C530.693 660.967 530.298 661.729 530.532 662.427C530.765 663.126 531.539 663.496 532.26 663.255Z" fill="url(#paint7_linear_957_986)"/>
<path fill-rule="evenodd" clip-rule="evenodd" d="M546.171 683.127C548.255 682.43 549.397 680.229 548.721 678.212L547.875 675.683L541.346 677.868L541.111 677.165L550.542 674.009C552.626 673.312 553.767 671.112 553.092 669.094L551.259 663.615C550.584 661.598 548.347 660.528 546.264 661.225L544.088 661.953L545.122 665.044C545.797 667.061 544.655 669.262 542.572 669.959L535.607 672.29C533.844 672.88 532.878 674.742 533.449 676.449L535.518 682.63C536.193 684.648 538.429 685.718 540.512 685.021L546.171 683.127ZM545.537 678.34C544.816 678.581 544.421 679.343 544.655 680.041C544.888 680.74 545.662 681.11 546.384 680.869C547.105 680.627 547.5 679.866 547.266 679.167C547.033 678.469 546.259 678.099 545.537 678.34Z" fill="url(#paint8_linear_957_986)"/>
</g>
<g clip-path="url(#clip5_957_986)">
<path d="M593.179 662.411C590.651 665.258 586.41 666.883 581.461 666.485C577.459 666.173 573.68 664.546 570.821 662.2C571.965 662.643 573.208 662.888 574.5 663.033C579.67 663.624 584.093 661.985 586.59 658.993C580.972 657.074 575.67 653.887 571.618 651.197C570.822 650.802 570.126 650.209 569.455 649.691C573.93 651.662 580.692 653.776 583.004 654.242C577.461 651.306 572.016 647.182 572.215 647.281C580.891 651.645 588.176 653.337 588.176 653.337C588.414 653.382 588.599 653.424 588.751 653.466C588.771 653.091 588.771 652.708 588.748 652.32C588.525 648.182 585.89 644.274 582.086 641.583C589.345 643.2 595.212 648.835 595.634 655.053C595.647 655.22 595.655 655.387 595.66 655.551C599.886 658.267 600.456 662.524 599.835 661.906C597.161 659.294 594.488 661.261 593.179 662.411Z" fill="url(#paint9_linear_957_986)"/>
</g>
<g clip-path="url(#clip6_957_986)">
<path d="M625.494 627.057L614.753 635.924L622.044 651.41L634.379 653.61L642.907 644.429L639.409 627.673L625.494 627.057Z" fill="#DD0031"/>
<path d="M625.494 627.057L634.379 653.61L642.907 644.429L639.409 627.673L625.494 627.057Z" fill="#C3002F"/>
<path d="M626.476 629.991L624.567 649.896L627.441 648.934L627.693 644.539L634.234 642.35L637.081 645.708L639.954 644.747L626.476 629.991ZM632.428 640.297L627.926 641.803L628.36 635.62L632.428 640.297Z" fill="white"/>
</g>
<g clip-path="url(#clip7_957_986)">
<path d="M658.372 618.164L679.264 636.481L684.925 609.279L679.709 611.024L676.25 627.472L663.588 616.419L658.372 618.164Z" fill="#41B883"/>
<path d="M663.588 616.419L676.25 627.472L679.709 611.024L674.968 612.611L673.618 619.403L668.329 614.832L663.588 616.419Z" fill="#35495E"/>
</g>
</g>
</g>
<defs>
<filter id="filter0_f_957_986" x="0.62207" y="0.440186" width="1034.89" height="1145.71" filterUnits="userSpaceOnUse" color-interpolation-filters="sRGB">
<feFlood flood-opacity="0" result="BackgroundImageFix"/>
<feBlend mode="normal" in="SourceGraphic" in2="BackgroundImageFix" result="shape"/>
<feGaussianBlur stdDeviation="85" result="effect1_foregroundBlur_957_986"/>
</filter>
<linearGradient id="paint0_linear_957_986" x1="412.9" y1="330.693" x2="412.9" y2="1194.45" gradientUnits="userSpaceOnUse">
<stop stop-color="#9032FF"/>
<stop offset="1" stop-color="#2045FF"/>
</linearGradient>
<linearGradient id="paint1_linear_957_986" x1="115.038" y1="312.121" x2="816.977" y2="830.848" gradientUnits="userSpaceOnUse">
<stop stop-color="#343434"/>
<stop offset="1"/>
</linearGradient>
<linearGradient id="paint2_linear_957_986" x1="517.11" y1="484.59" x2="364.61" y2="339.59" gradientUnits="userSpaceOnUse">
<stop stop-color="white" stop-opacity="0.31"/>
<stop offset="1" stop-color="white"/>
</linearGradient>
<linearGradient id="paint3_linear_957_986" x1="445.357" y1="348.857" x2="473.132" y2="431.859" gradientUnits="userSpaceOnUse">
<stop stop-color="#9032FF"/>
<stop offset="1" stop-color="#2045FF"/>
</linearGradient>
<linearGradient id="paint4_linear_957_986" x1="496.325" y1="670.281" x2="505.211" y2="696.834" gradientUnits="userSpaceOnUse">
<stop stop-color="#32B5F1"/>
<stop offset="1" stop-color="#2B9FED"/>
</linearGradient>
<linearGradient id="paint5_linear_957_986" x1="494.803" y1="674.517" x2="481.177" y2="696.762" gradientUnits="userSpaceOnUse">
<stop stop-color="#0F6FB3"/>
<stop offset="0.270551" stop-color="#1279B7"/>
<stop offset="0.421376" stop-color="#1176B5"/>
<stop offset="0.618197" stop-color="#0E69AC"/>
<stop offset="0.855344" stop-color="#0F70AF"/>
<stop offset="1" stop-color="#0F6DAD"/>
</linearGradient>
<linearGradient id="paint6_linear_957_986" x1="477.394" y1="685.035" x2="501.523" y2="694.357" gradientUnits="userSpaceOnUse">
<stop stop-color="#1791D2"/>
<stop offset="1" stop-color="#1173C5"/>
</linearGradient>
<linearGradient id="paint7_linear_957_986" x1="531.119" y1="658.638" x2="537.701" y2="678.306" gradientUnits="userSpaceOnUse">
<stop stop-color="#327EBD"/>
<stop offset="1" stop-color="#1565A7"/>
</linearGradient>
<linearGradient id="paint8_linear_957_986" x1="540.097" y1="663.288" x2="546.679" y2="682.957" gradientUnits="userSpaceOnUse">
<stop stop-color="#FFDA4B"/>
<stop offset="1" stop-color="#F9C600"/>
</linearGradient>
<linearGradient id="paint9_linear_957_986" x1="579.037" y1="642.603" x2="586.971" y2="666.312" gradientUnits="userSpaceOnUse">
<stop stop-color="#F88A36"/>
<stop offset="1" stop-color="#FD2020"/>
</linearGradient>
<clipPath id="clip0_957_986">
<rect x="145.426" y="312.121" width="542.633" height="731.362" rx="40" transform="rotate(-18.5017 145.426 312.121)" fill="white"/>
</clipPath>
<clipPath id="clip1_957_986">
<rect x="412.423" y="683.594" width="272" height="56" rx="8" transform="rotate(-18.5017 412.423 683.594)" fill="white"/>
</clipPath>
<clipPath id="clip2_957_986">
<rect width="32" height="32" fill="white" transform="translate(427.61 691.166) rotate(-18.5017)"/>
</clipPath>
<clipPath id="clip3_957_986">
<rect width="32" height="32" fill="white" transform="translate(473.13 675.934) rotate(-18.5017)"/>
</clipPath>
<clipPath id="clip4_957_986">
<rect width="32" height="32" fill="white" transform="translate(518.648 660.702) rotate(-18.5017)"/>
</clipPath>
<clipPath id="clip5_957_986">
<rect width="32" height="32" fill="white" transform="translate(564.168 645.469) rotate(-18.5017)"/>
</clipPath>
<clipPath id="clip6_957_986">
<rect width="32" height="32" fill="white" transform="translate(609.687 630.238) rotate(-18.5017)"/>
</clipPath>
<clipPath id="clip7_957_986">
<rect width="32" height="32" fill="white" transform="translate(655.206 615.006) rotate(-18.5017)"/>
</clipPath>
</defs>
</svg>
