<svg width="74" height="74" viewBox="0 0 74 74" fill="none" xmlns="http://www.w3.org/2000/svg">
<path d="M74 37C74 16.5655 57.4345 0 37 0C16.5655 0 0 16.5655 0 37C0 57.4345 16.5655 74 37 74C57.4345 74 74 57.4345 74 37Z" fill="#F5F9F8"/>
<mask id="mask0_6_61" style="mask-type:luminance" maskUnits="userSpaceOnUse" x="25" y="25" width="24" height="24">
<path d="M49 25H25V49H49V25Z" fill="white"/>
</mask>
<g mask="url(#mask0_6_61)">
<path d="M36.298 27.1999C36.693 27.0499 37.124 27.0299 37.53 27.1399L37.702 27.1999L44.702 29.82C45.057 29.95 45.367 30.18 45.595 30.49C45.824 30.79 45.962 31.15 45.993 31.53L46 31.6899V37.06C46 38.68 45.562 40.2699 44.734 41.6599C43.905 43.0499 42.715 44.1899 41.291 44.9699L41.025 45.1101L37.671 46.78C37.486 46.88 37.285 46.9299 37.078 46.9399C36.872 46.9499 36.666 46.9201 36.473 46.8501L36.329 46.78L32.975 45.1101C31.526 44.3801 30.299 43.2799 29.424 41.9099C28.549 40.5499 28.059 38.9801 28.005 37.3601L28 37.06V31.6899C28 31.3099 28.108 30.9401 28.31 30.6201C28.513 30.3001 28.802 30.0499 29.145 29.8899L29.298 29.82L36.298 27.1999ZM37 29.07L30 31.6899V37.06C30 38.31 30.337 39.5401 30.977 40.6201C31.616 41.7001 32.535 42.5899 33.635 43.1899L33.87 43.32L37 44.8798L40.13 43.32C41.253 42.76 42.204 41.9001 42.884 40.8501C43.564 39.7901 43.948 38.57 43.995 37.32L44 37.06V31.6899L37 29.07ZM40.433 33.6298C40.613 33.4498 40.854 33.35 41.108 33.34C41.362 33.33 41.61 33.42 41.8 33.59C41.991 33.76 42.11 33.99 42.134 34.24C42.158 34.5 42.085 34.7499 41.93 34.9499L41.847 35.04L36.613 40.28C36.422 40.47 36.168 40.5801 35.899 40.6001C35.63 40.6101 35.364 40.5301 35.153 40.3601L35.057 40.28L32.653 37.8701C32.472 37.6901 32.366 37.4499 32.357 37.1999C32.349 36.9399 32.438 36.69 32.606 36.5C32.775 36.31 33.011 36.1899 33.265 36.1699C33.519 36.1399 33.772 36.2198 33.973 36.3798L34.067 36.4599L35.835 38.2299L40.433 33.6298Z" fill="black"/>
</g>
</svg>
