<svg width="74" height="74" viewBox="0 0 74 74" fill="none" xmlns="http://www.w3.org/2000/svg">
<path d="M74 37C74 16.5655 57.4345 0 37 0C16.5655 0 0 16.5655 0 37C0 57.4345 16.5655 74 37 74C57.4345 74 74 57.4345 74 37Z" fill="#F5F9F8"/>
<path d="M46.376 38.1299C45.626 41.8799 42.799 45.4099 38.831 46.1999C36.896 46.5799 34.889 46.35 33.095 45.52C31.301 44.7 29.813 43.3401 28.841 41.6201C27.869 39.9001 27.464 37.9199 27.683 35.9599C27.902 33.9999 28.734 32.1599 30.061 30.6999C32.782 27.6999 37.376 26.8799 41.126 28.3799" stroke="black" stroke-width="2" stroke-linecap="round" stroke-linejoin="round"/>
<path d="M33.625 36.6201L37.375 40.3799L46.375 30.6201" stroke="black" stroke-width="2" stroke-linecap="round" stroke-linejoin="round"/>
</svg>
