<svg width="74" height="74" viewBox="0 0 74 74" fill="none" xmlns="http://www.w3.org/2000/svg">
<path d="M74 37C74 16.5655 57.4345 0 37 0C16.5655 0 0 16.5655 0 37C0 57.4345 16.5655 74 37 74C57.4345 74 74 57.4345 74 37Z" fill="#F5F9F8"/>
<mask id="mask0_6_56" style="mask-type:luminance" maskUnits="userSpaceOnUse" x="25" y="25" width="24" height="24">
<path d="M49 25H25V49H49V25Z" fill="white"/>
</mask>
<g mask="url(#mask0_6_56)">
<path d="M35.172 42.1202C35.68 42.3802 36.137 42.7002 36.543 43.0702C36.949 43.4502 37.301 43.8702 37.598 44.3402C37.895 44.8102 38.117 45.3102 38.266 45.8402C38.414 46.3702 38.492 46.9201 38.5 47.5001H37C37 46.8801 36.883 46.3001 36.648 45.7501C36.414 45.2101 36.094 44.7302 35.688 44.3202C35.281 43.9202 34.801 43.5902 34.246 43.3502C33.691 43.1102 33.109 42.9901 32.5 43.0001C31.875 43.0001 31.293 43.1202 30.754 43.3502C30.215 43.5902 29.738 43.9101 29.324 44.3101C28.91 44.7201 28.586 45.2001 28.352 45.7501C28.117 46.3101 28 46.8901 28 47.5001H26.5C26.5 46.9301 26.578 46.3802 26.734 45.8502C26.891 45.3202 27.113 44.8202 27.402 44.3502C27.691 43.8802 28.039 43.4602 28.445 43.0802C28.852 42.7102 29.312 42.3902 29.828 42.1202C29.25 41.6902 28.801 41.1601 28.48 40.5301C28.16 39.8901 28 39.2201 28 38.5001C28 37.8801 28.117 37.3001 28.352 36.7501C28.586 36.2101 28.906 35.7302 29.312 35.3202C29.719 34.9202 30.195 34.5902 30.742 34.3502C31.289 34.1102 31.875 33.9901 32.5 34.0001C33.219 34.0001 33.895 34.1601 34.527 34.4801C35.16 34.8001 35.691 35.2502 36.121 35.8302C36.418 35.2402 36.797 34.7201 37.258 34.2601C37.719 33.8001 38.242 33.4202 38.828 33.1202C38.25 32.6902 37.801 32.1601 37.48 31.5301C37.16 30.8901 37 30.2201 37 29.5001C37 28.8801 37.117 28.3001 37.352 27.7501C37.586 27.2101 37.906 26.7302 38.312 26.3202C38.719 25.9202 39.195 25.5902 39.742 25.3502C40.289 25.1102 40.875 24.9901 41.5 25.0001C42.117 25.0001 42.699 25.1202 43.246 25.3502C43.793 25.5902 44.27 25.9101 44.676 26.3101C45.082 26.7201 45.406 27.2001 45.648 27.7501C45.891 28.3101 46.008 28.8901 46 29.5001C46 30.2201 45.84 30.8901 45.52 31.5301C45.199 32.1601 44.75 32.6902 44.172 33.1202C44.68 33.3802 45.137 33.7002 45.543 34.0702C45.949 34.4502 46.301 34.8702 46.598 35.3402C46.895 35.8102 47.117 36.3102 47.266 36.8402C47.414 37.3702 47.492 37.9201 47.5 38.5001H46C46 37.8801 45.883 37.3001 45.648 36.7501C45.414 36.2101 45.094 35.7302 44.688 35.3202C44.281 34.9202 43.801 34.5902 43.246 34.3502C42.691 34.1102 42.109 33.9901 41.5 34.0001C40.875 34.0001 40.293 34.1202 39.754 34.3502C39.215 34.5902 38.738 34.9101 38.324 35.3101C37.91 35.7201 37.586 36.2001 37.352 36.7501C37.117 37.3101 37 37.8901 37 38.5001C37 39.2201 36.84 39.8901 36.52 40.5301C36.199 41.1601 35.75 41.6902 35.172 42.1202ZM38.5 29.5001C38.5 29.9101 38.578 30.3 38.734 30.66C38.891 31.02 39.105 31.3402 39.379 31.6202C39.652 31.9002 39.969 32.1201 40.328 32.2701C40.688 32.4101 41.078 32.4901 41.5 32.5001C41.914 32.5001 42.301 32.4201 42.66 32.2701C43.02 32.1101 43.34 31.8902 43.621 31.6202C43.902 31.3502 44.117 31.03 44.266 30.67C44.414 30.31 44.492 29.9201 44.5 29.5001C44.5 29.0901 44.422 28.7002 44.266 28.3402C44.109 27.9802 43.895 27.66 43.621 27.38C43.348 27.1 43.031 26.8801 42.672 26.7301C42.312 26.5901 41.922 26.5101 41.5 26.5001C41.086 26.5001 40.699 26.5801 40.34 26.7301C39.98 26.8901 39.66 27.11 39.379 27.38C39.098 27.65 38.883 27.9702 38.734 28.3302C38.586 28.6902 38.508 29.0801 38.5 29.5001ZM29.5 38.5001C29.5 38.9101 29.578 39.3 29.734 39.66C29.891 40.02 30.105 40.3402 30.379 40.6202C30.652 40.9002 30.969 41.1201 31.328 41.2701C31.688 41.4101 32.078 41.4901 32.5 41.5001C32.914 41.5001 33.301 41.4201 33.66 41.2701C34.02 41.1101 34.34 40.8902 34.621 40.6202C34.902 40.3502 35.117 40.03 35.266 39.67C35.414 39.31 35.492 38.9201 35.5 38.5001C35.5 38.0901 35.422 37.7002 35.266 37.3402C35.109 36.9802 34.895 36.66 34.621 36.38C34.348 36.1 34.031 35.8801 33.672 35.7301C33.312 35.5901 32.922 35.5101 32.5 35.5001C32.086 35.5001 31.699 35.5801 31.34 35.7301C30.98 35.8901 30.66 36.11 30.379 36.38C30.098 36.65 29.883 36.9702 29.734 37.3302C29.586 37.6902 29.508 38.0801 29.5 38.5001ZM47.125 49.0001L43.75 46.3602L40.375 49.0001L41.734 44.7801L38.5 42.2501H42.543L43.75 38.5001L44.957 42.2501H49L45.766 44.7801L47.125 49.0001Z" fill="black"/>
</g>
</svg>
