<svg width="74" height="74" viewBox="0 0 74 74" fill="none" xmlns="http://www.w3.org/2000/svg">
<path d="M74 37C74 16.5655 57.4345 0 37 0C16.5655 0 0 16.5655 0 37C0 57.4345 16.5655 74 37 74C57.4345 74 74 57.4345 74 37Z" fill="#F5F9F8"/>
<path d="M41.8 28.3C41.8 28.06 41.9001 27.8299 42.0601 27.6599C42.2301 27.4999 42.46 27.3999 42.7 27.3999H45.7C45.94 27.3999 46.17 27.4999 46.34 27.6599C46.51 27.8299 46.6 28.06 46.6 28.3V31.3C46.6 31.54 46.51 31.7699 46.34 31.9399C46.17 32.1099 45.94 32.2 45.7 32.2C45.46 32.2 45.2301 32.1099 45.0601 31.9399C44.9001 31.7699 44.8 31.54 44.8 31.3V30.47L39.4399 35.8401C39.2699 36.0001 39.04 36.1001 38.8 36.1001C38.56 36.1001 38.33 36.0001 38.16 35.8401L35.2 32.8701L30.14 37.9399C30.05 38.0199 29.95 38.0999 29.84 38.1399C29.73 38.1899 29.61 38.22 29.49 38.22C29.37 38.22 29.25 38.1999 29.14 38.1599C29.03 38.1099 28.93 38.04 28.84 37.96C28.76 37.87 28.69 37.7699 28.64 37.6599C28.6 37.5499 28.58 37.4301 28.58 37.3101C28.58 37.1901 28.61 37.07 28.66 36.96C28.71 36.85 28.78 36.7499 28.86 36.6599L34.5601 30.96C34.7301 30.8 34.96 30.7 35.2 30.7C35.44 30.7 35.67 30.8 35.84 30.96L38.8 33.9299L43.53 29.2H42.7C42.46 29.2 42.2301 29.1099 42.0601 28.9399C41.9001 28.7699 41.8 28.54 41.8 28.3ZM29.5 41.8C29.74 41.8 29.97 41.9001 30.14 42.0601C30.31 42.2301 30.4 42.46 30.4 42.7V45.7C30.4 45.94 30.31 46.1701 30.14 46.3401C29.97 46.5101 29.74 46.6001 29.5 46.6001C29.26 46.6001 29.03 46.5101 28.86 46.3401C28.7 46.1701 28.6 45.94 28.6 45.7V42.7C28.6 42.46 28.7 42.2301 28.86 42.0601C29.03 41.9001 29.26 41.8 29.5 41.8ZM35.2 39.1001C35.2 38.8601 35.1099 38.63 34.9399 38.46C34.7699 38.3 34.54 38.2 34.3 38.2C34.06 38.2 33.83 38.3 33.66 38.46C33.5 38.63 33.4 38.8601 33.4 39.1001V45.7C33.4 45.94 33.5 46.1701 33.66 46.3401C33.83 46.5101 34.06 46.6001 34.3 46.6001C34.54 46.6001 34.7699 46.5101 34.9399 46.3401C35.1099 46.1701 35.2 45.94 35.2 45.7V39.1001ZM39.1 40.6001C39.34 40.6001 39.57 40.7001 39.74 40.8601C39.91 41.0301 40 41.26 40 41.5V45.7C40 45.94 39.91 46.1701 39.74 46.3401C39.57 46.5101 39.34 46.6001 39.1 46.6001C38.86 46.6001 38.63 46.5101 38.46 46.3401C38.3 46.1701 38.2 45.94 38.2 45.7V41.5C38.2 41.26 38.3 41.0301 38.46 40.8601C38.63 40.7001 38.86 40.6001 39.1 40.6001ZM44.8 36.7C44.8 36.46 44.71 36.2301 44.54 36.0601C44.37 35.9001 44.14 35.8 43.9 35.8C43.66 35.8 43.43 35.9001 43.26 36.0601C43.1 36.2301 43 36.46 43 36.7V45.7C43 45.94 43.1 46.1701 43.26 46.3401C43.43 46.5101 43.66 46.6001 43.9 46.6001C44.14 46.6001 44.37 46.5101 44.54 46.3401C44.71 46.1701 44.8 45.94 44.8 45.7V36.7Z" fill="black"/>
</svg>
