<svg width="74" height="74" viewBox="0 0 74 74" fill="none" xmlns="http://www.w3.org/2000/svg">
<path d="M74 37C74 16.5655 57.4345 0 37 0C16.5655 0 0 16.5655 0 37C0 57.4345 16.5655 74 37 74C57.4345 74 74 57.4345 74 37Z" fill="#F5F9F8"/>
<mask id="mask0_6_54" style="mask-type:luminance" maskUnits="userSpaceOnUse" x="25" y="25" width="24" height="24">
<path d="M49 25H25V49H49V25Z" fill="white"/>
</mask>
<g mask="url(#mask0_6_54)">
<path fill-rule="evenodd" clip-rule="evenodd" d="M37 27C39.387 27 41.676 27.9499 43.364 29.6399C45.052 31.3199 46 33.61 46 36C46 39.07 44.324 41.5899 42.558 43.3999C41.676 44.2899 40.713 45.1001 39.682 45.8101L39.256 46.1001L39.056 46.23L38.679 46.47L38.343 46.6799L37.927 46.9199C37.645 47.0799 37.325 47.1699 37 47.1699C36.675 47.1699 36.355 47.0799 36.073 46.9199L35.657 46.6799L35.137 46.3601L34.945 46.23L34.535 45.96C33.423 45.21 32.387 44.3499 31.442 43.3999C29.676 41.5899 28 39.07 28 36C28 33.61 28.948 31.3199 30.636 29.6399C32.324 27.9499 34.613 27 37 27ZM37 29C35.143 29 33.363 29.74 32.05 31.05C30.737 32.36 30 34.14 30 36C30 38.32 31.272 40.36 32.871 42C33.559 42.69 34.302 43.3299 35.093 43.9099L35.551 44.23C35.699 44.34 35.841 44.43 35.978 44.52L36.368 44.77L36.711 44.98L37 45.1499L37.455 44.8799L37.822 44.6499C38.017 44.5199 38.226 44.39 38.449 44.23L38.907 43.9099C39.698 43.3299 40.441 42.69 41.129 42C42.728 40.36 44 38.32 44 36C44 34.14 43.263 32.36 41.95 31.05C40.637 29.74 38.857 29 37 29ZM37 32C38.061 32 39.078 32.4199 39.828 33.1699C40.579 33.9199 41 34.94 41 36C41 37.06 40.579 38.0801 39.828 38.8301C39.078 39.5801 38.061 40 37 40C35.939 40 34.922 39.5801 34.172 38.8301C33.421 38.0801 33 37.06 33 36C33 34.94 33.421 33.9199 34.172 33.1699C34.922 32.4199 35.939 32 37 32ZM37 34C36.47 34 35.961 34.2101 35.586 34.5901C35.211 34.9601 35 35.47 35 36C35 36.53 35.211 37.0399 35.586 37.4099C35.961 37.7899 36.47 38 37 38C37.53 38 38.039 37.7899 38.414 37.4099C38.789 37.0399 39 36.53 39 36C39 35.47 38.789 34.9601 38.414 34.5901C38.039 34.2101 37.53 34 37 34Z" fill="black"/>
</g>
</svg>
