<svg width="42" height="42" viewBox="0 0 42 42" fill="none" xmlns="http://www.w3.org/2000/svg">
<path d="M42 21C42 9.40202 32.598 0 21 0C9.40202 0 0 9.40202 0 21C0 32.598 9.40202 42 21 42C32.598 42 42 32.598 42 21Z" fill="#9CFFDF"/>
<mask id="mask0_1172_435" style="mask-type:luminance" maskUnits="userSpaceOnUse" x="12" y="12" width="18" height="18">
<path d="M30 12H12V30H30V12Z" fill="white"/>
</mask>
<g mask="url(#mask0_1172_435)">
<path d="M20.2598 20.9994V28.3193C18.6188 27.7893 17.1478 26.8294 15.9968 25.5494C14.8468 24.2594 14.0568 22.6894 13.7098 20.9994H20.2598ZM27.2228 23.8494C26.0228 25.9694 24.0748 27.5594 21.7608 28.3094L21.7598 20.9994H28.2908C28.0868 21.9994 27.7258 22.9594 27.2228 23.8494ZM20.2608 13.8994L20.2598 19.4994H13.5208C13.4698 18.4294 13.5958 17.3394 13.9058 16.2894C13.9538 16.1294 14.0538 15.9894 14.1898 15.8894C14.3268 15.7994 14.4917 15.7494 14.6597 15.7494C16.6007 15.8394 18.5108 15.2394 20.0538 14.0594L20.2608 13.8994ZM21.7598 19.4994V13.9094L21.6928 13.8594C23.2058 15.1194 25.1178 15.7894 27.0838 15.7594L27.3408 15.7494C27.5088 15.7494 27.6737 15.7994 27.8107 15.8894C27.9467 15.9894 28.0467 16.1294 28.0947 16.2894C28.4037 17.3394 28.5307 18.4294 28.4797 19.4994H21.7598Z" fill="black"/>
</g>
</svg>
