<svg width="47" height="30" viewBox="0 0 47 30" fill="none" xmlns="http://www.w3.org/2000/svg">
<path opacity="0.11" d="M0.119141 18.499C0.119141 9.04896 7.95909 -0.40103 20.6891 0.0089703V5.62884C13.2791 5.62884 8.09917 10.0089 7.39917 15.8989C8.51917 15.3489 9.63914 15.2089 10.6191 15.2089C15.0991 15.2089 18.3191 18.3589 18.3191 22.4689C18.3191 26.9889 14.6792 29.999 9.91919 29.999C3.47919 29.999 0.119141 25.069 0.119141 18.499ZM26.4292 18.499C26.4292 9.04896 34.2691 -0.40103 46.9991 0.0089703V5.62884C39.5791 5.62884 34.4091 10.0089 33.7091 15.8989C34.8291 15.3489 35.9491 15.2089 37.0691 15.2089C41.3991 15.2089 44.6191 18.3589 44.6191 22.4689C44.6191 26.9889 41.1191 29.999 36.2291 29.999C29.7891 29.999 26.4292 25.069 26.4292 18.499Z" fill="black"/>
</svg>
