<svg width="147" height="162" viewBox="0 0 147 162" fill="none" xmlns="http://www.w3.org/2000/svg">
<path d="M128.747 69.8054L103.094 90.7546C98.9447 85.6736 96.395 79.3895 95.445 71.9024C94.495 64.4152 94.7605 57.2782 96.2415 50.4912C99.7695 33.5631 98.6998 21.6291 93.0324 14.6892C89.4903 10.3517 85.2707 8.22017 80.3736 8.29445C75.4765 8.36873 70.3635 10.5818 65.0346 14.9335C54.6248 23.4346 51.7547 34.971 56.4244 49.5426L24.1666 54.8151C20.4966 42.7324 20.6145 30.8614 24.5203 19.2021C28.4262 7.5429 35.4602 -2.43607 45.6221 -10.7348C56.7755 -19.8431 69.1857 -24.5035 82.8526 -24.7161C96.4182 -25.0525 107.856 -19.5201 117.167 -8.11888C121.317 -3.03789 124.148 2.70609 125.662 9.11304C127.199 15.2949 127.733 21.2619 127.267 27.0141C126.822 32.5411 126.215 37.9948 125.445 43.3752C124.697 48.5305 124.422 53.5061 124.62 58.302C124.942 62.9967 126.318 66.8312 128.747 69.8054ZM156.465 97.6766C160.007 102.014 161.495 106.997 160.926 112.625C160.358 118.253 157.906 122.839 153.568 126.381C149.231 129.923 144.248 131.41 138.62 130.842C132.991 130.274 128.406 127.821 124.864 123.484C121.322 119.146 119.835 114.163 120.403 108.535C120.971 102.907 123.424 98.3216 127.761 94.7794C132.099 91.2373 137.082 89.7503 142.71 90.3183C148.338 90.8864 152.923 93.3392 156.465 97.6766Z" fill="url(#paint0_linear_957_1220)"/>
<defs>
<linearGradient id="paint0_linear_957_1220" x1="23.0403" y1="-34.4345" x2="173.145" y2="149.373" gradientUnits="userSpaceOnUse">
<stop stop-color="#9032FF"/>
<stop offset="1" stop-color="#2045FF"/>
</linearGradient>
</defs>
</svg>
