<svg width="212" height="44" viewBox="0 0 212 44" fill="none" xmlns="http://www.w3.org/2000/svg">
<rect x="0.5" y="0.5" width="211" height="43" rx="5.5" fill="#F9FAFB"/>
<rect x="0.5" y="0.5" width="211" height="43" rx="5.5" stroke="#F2F4F7"/>
<path d="M14 34C16.208 34 18 32.208 18 30V26H14C11.792 26 10 27.792 10 30C10 32.208 11.792 34 14 34Z" fill="#0ACF83"/>
<path d="M10 22C10 19.792 11.792 18 14 18H18V26H14C11.792 26 10 24.208 10 22Z" fill="#A259FF"/>
<path d="M10 14C10 11.792 11.792 10 14 10H18V18H14C11.792 18 10 16.208 10 14Z" fill="#F24E1E"/>
<path d="M18 10H22C24.208 10 26 11.792 26 14C26 16.208 24.208 18 22 18H18V10Z" fill="#FF7262"/>
<path d="M26 22C26 24.208 24.208 26 22 26C19.792 26 18 24.208 18 22C18 19.792 19.792 18 22 18C24.208 18 26 19.792 26 22Z" fill="#1ABCFE"/>
<path d="M44 18.1333C44 14.5863 44 12.8128 44.6903 11.4581C45.2975 10.2664 46.2664 9.29749 47.4581 8.69029C48.8128 8 50.5863 8 54.1333 8H61.8667C65.4137 8 67.1872 8 68.5419 8.69029C69.7336 9.29749 70.7025 10.2664 71.3097 11.4581C72 12.8128 72 14.5863 72 18.1333V25.8667C72 29.4137 72 31.1872 71.3097 32.5419C70.7025 33.7336 69.7336 34.7025 68.5419 35.3097C67.1872 36 65.4137 36 61.8667 36H54.1333C50.5863 36 48.8128 36 47.4581 35.3097C46.2664 34.7025 45.2975 33.7336 44.6903 32.5419C44 31.1872 44 29.4137 44 25.8667V18.1333Z" fill="#242424"/>
<path d="M51.8669 22.4C47.9669 25.2704 47.2002 29.4667 47.2002 32.9667C47.378 31.9222 48.1935 29.4733 50.0335 28.0333C52.7669 25.8942 57.7668 26.5989 63.2335 22.9667C68.7002 19.3344 69.2335 14.6 68.5335 10.9667C68.0472 14.4726 66.3874 16.0005 64.1002 17.3667C59.1336 20.3333 56.0336 19.3333 51.8669 22.4Z" fill="url(#paint0_linear_957_1176)"/>
<path d="M51.8669 22.4C47.9669 25.2704 47.2002 29.4667 47.2002 32.9667C47.378 31.9222 48.1935 29.4733 50.0335 28.0333C52.7669 25.8942 57.7668 26.5989 63.2335 22.9667C68.7002 19.3344 69.2335 14.6 68.5335 10.9667C68.0472 14.4726 66.3874 16.0005 64.1002 17.3667C59.1336 20.3333 56.0336 19.3333 51.8669 22.4Z" fill="url(#paint1_linear_957_1176)"/>
<path d="M47.2471 31.532C47.4611 28.3695 48.4879 24.887 51.8671 22.4C54.0393 20.8013 55.9215 20.3078 57.9295 19.7813C59.1013 19.4741 60.316 19.1556 61.656 18.5997C61.1671 19.0667 58.844 20.1567 57.0917 20.8849C55.344 21.6113 53.5013 22.3772 51.9671 23.4C48.8889 25.4521 47.6373 29.0225 47.2471 31.532Z" fill="url(#paint2_linear_957_1176)"/>
<path d="M47.2471 31.532C47.4611 28.3695 48.4879 24.887 51.8671 22.4C54.0393 20.8013 55.9215 20.3078 57.9295 19.7813C59.1013 19.4741 60.316 19.1556 61.656 18.5997C61.1671 19.0667 58.844 20.1567 57.0917 20.8849C55.344 21.6113 53.5013 22.3772 51.9671 23.4C48.8889 25.4521 47.6373 29.0225 47.2471 31.532Z" fill="url(#paint3_linear_957_1176)"/>
<path d="M66.2179 20.3709C65.8346 20.7463 65.4072 21.0825 64.9336 21.3667C62.8002 22.6467 60.5327 23.0595 58.3263 23.4611C56.568 23.7812 54.8486 24.0942 53.2669 24.8333C49.7005 26.4999 47.5005 29.9662 47.2003 32.9661C47.2003 32.9662 47.2003 32.9663 47.2002 32.9665C47.2002 32.9659 47.2002 32.9654 47.2002 32.9648C47.2002 32.7359 47.2035 32.5039 47.2108 32.2695C47.2289 31.8977 47.2674 31.4857 47.331 31.0463C47.8018 28.5792 49.0824 25.323 51.9669 23.4C53.188 22.5859 54.6044 21.9347 56.0129 21.3365C57.2515 20.9298 58.3679 20.6768 59.4315 20.4356C61.1058 20.056 62.6493 19.7061 64.3336 18.8333C67.8677 17.002 68.7936 13.2388 68.5447 11.0251C69.0731 13.83 68.8595 17.2799 66.2179 20.3709Z" fill="url(#paint4_linear_957_1176)"/>
<path d="M66.2181 20.371C65.8348 20.7464 65.4075 21.0825 64.9338 21.3667C62.8005 22.6467 60.533 23.0595 58.3265 23.4611C56.5683 23.7812 54.8489 24.0942 53.2672 24.8333C51.2161 25.7918 49.617 27.3455 48.5713 29.0634C49.494 27.7669 50.8996 26.3185 52.6338 25.7667C54.3261 25.2282 55.9402 25.1726 57.6172 25.1148C58.0978 25.0982 58.5836 25.0815 59.0778 25.0532C60.4099 24.5682 61.8059 23.9154 63.2338 22.9667C64.4646 22.1489 65.4453 21.2753 66.2181 20.371Z" fill="url(#paint5_linear_957_1176)"/>
<path d="M66.2181 20.371C65.8348 20.7464 65.4075 21.0825 64.9338 21.3667C62.8005 22.6467 60.533 23.0595 58.3265 23.4611C56.5683 23.7812 54.8489 24.0942 53.2672 24.8333C51.2161 25.7918 49.617 27.3455 48.5713 29.0634C49.494 27.7669 50.8996 26.3185 52.6338 25.7667C54.3261 25.2282 55.9402 25.1726 57.6172 25.1148C58.0978 25.0982 58.5836 25.0815 59.0778 25.0532C60.4099 24.5682 61.8059 23.9154 63.2338 22.9667C64.4646 22.1489 65.4453 21.2753 66.2181 20.371Z" fill="url(#paint6_linear_957_1176)"/>
<path d="M68.5445 11.0251C68.5408 11.0056 68.5371 10.9861 68.5333 10.9667C68.047 14.4726 66.3872 16.0005 64.1 17.3667C63.2336 17.8842 62.4239 18.281 61.6555 18.5998C61.1665 19.0667 58.8435 20.1567 57.0912 20.885L57.091 20.8851C56.7344 21.0333 56.3738 21.1831 56.0127 21.3365C57.2513 20.9298 58.3677 20.6767 59.4313 20.4356C61.1055 20.056 62.6491 19.7061 64.3333 18.8333C67.8674 17.002 68.7933 13.2388 68.5445 11.0251Z" fill="url(#paint7_linear_957_1176)"/>
<path d="M68.5445 11.0251C68.5408 11.0056 68.5371 10.9861 68.5333 10.9667C68.047 14.4726 66.3872 16.0005 64.1 17.3667C63.2336 17.8842 62.4239 18.281 61.6555 18.5998C61.1665 19.0667 58.8435 20.1567 57.0912 20.885L57.091 20.8851C56.7344 21.0333 56.3738 21.1831 56.0127 21.3365C57.2513 20.9298 58.3677 20.6767 59.4313 20.4356C61.1055 20.056 62.6491 19.7061 64.3333 18.8333C67.8674 17.002 68.7933 13.2388 68.5445 11.0251Z" fill="url(#paint8_linear_957_1176)"/>
<path fill-rule="evenodd" clip-rule="evenodd" d="M94.1091 10.7902L102 10L109.891 10.7902L116 18.558L102 33.9999L88 18.558L94.1091 10.7902Z" fill="#FDB300"/>
<path d="M93.6706 18.558L102 34L88 18.558H93.6706ZM110.329 18.558L102 34L116 18.558" fill="#EA6C00"/>
<path fill-rule="evenodd" clip-rule="evenodd" d="M93.6709 18.558H110.329L102 34" fill="#FDAD00"/>
<path d="M102 10L94.1093 10.79L93.6709 18.5579L102 10ZM102 10L109.891 10.79L110.33 18.5579" fill="#FDD231"/>
<path d="M116 18.5579L109.891 10.79L110.329 18.5579H116ZM88 18.5579L94.109 10.79L93.6706 18.5579" fill="#FDAD00"/>
<path fill-rule="evenodd" clip-rule="evenodd" d="M102 10L93.6709 18.5579H110.329" fill="#FEEEB7"/>
<path d="M146 8C138.278 8 132 14.2781 132 22C132 29.7219 138.278 36 146 36C153.722 36 160 29.7219 160 22C160 14.2781 153.722 8 146 8Z" fill="#E6001F"/>
<path d="M137 29C137 29 143.221 14.0039 143.206 14C143.206 14 143.206 14 143.206 14H143.206H147.93L155 29L149.66 29C149.664 29.0079 145.656 19.7963 145.606 19.7037C145.597 19.784 142.948 25.9491 142.916 25.9567H145.771C145.758 25.9724 147.012 28.9714 147.012 29L137 29Z" fill="white"/>
<path fill-rule="evenodd" clip-rule="evenodd" d="M190 36C197.732 36 204 29.732 204 22C204 14.268 197.732 8 190 8C182.268 8 176 14.268 176 22C176 29.732 182.268 36 190 36Z" fill="#1FB6FF"/>
<path fill-rule="evenodd" clip-rule="evenodd" d="M188.605 18.9212C189.63 18.9323 187.825 24.2538 188.019 26.5673C188.214 28.9013 190.797 28.2293 190.633 26.8857C190.354 24.6015 191.876 17.4438 193.419 17.4438C194.501 17.4438 192.22 22.3782 192.669 25.5379C192.966 27.6284 195.662 26.9032 195.388 25.6637C194.482 21.5615 197.29 17.619 196.975 14.8258C196.838 13.6036 196.103 13.0059 195.367 13.0001C192.793 12.9803 190.805 18.2592 190.805 18.2592C190.805 18.2592 191.012 15.2588 189.011 15.1487C185.948 14.9799 182.916 22.6458 183.002 29.4907C183.029 31.6744 185.747 31.3025 185.604 29.5614C185.338 26.3236 187.143 18.9055 188.605 18.9212Z" fill="white"/>
<defs>
<linearGradient id="paint0_linear_957_1176" x1="59.4002" y1="24.2" x2="47.8669" y2="32.4667" gradientUnits="userSpaceOnUse">
<stop stop-color="#FE5004"/>
<stop offset="0.602538" stop-color="#FFB915"/>
<stop offset="1" stop-color="#FFFC41"/>
</linearGradient>
<linearGradient id="paint1_linear_957_1176" x1="54.8335" y1="24.9" x2="54.9002" y2="26.1" gradientUnits="userSpaceOnUse">
<stop stop-color="#FD3E00"/>
<stop offset="1" stop-color="#FD4400" stop-opacity="0"/>
</linearGradient>
<linearGradient id="paint2_linear_957_1176" x1="61.6671" y1="18" x2="45.4004" y2="32.4667" gradientUnits="userSpaceOnUse">
<stop stop-color="#005FC6"/>
<stop offset="0.279756" stop-color="#23A4DF"/>
<stop offset="0.465158" stop-color="#3AC2B7"/>
<stop offset="0.640642" stop-color="#60EC7A"/>
<stop offset="0.818668" stop-color="#CFFDBD"/>
<stop offset="1" stop-color="#D0FCB6"/>
</linearGradient>
<linearGradient id="paint3_linear_957_1176" x1="58.3671" y1="20.7667" x2="56.9671" y2="19.5" gradientUnits="userSpaceOnUse">
<stop stop-color="#0061CB"/>
<stop offset="1" stop-color="#067EEA" stop-opacity="0"/>
</linearGradient>
<linearGradient id="paint4_linear_957_1176" x1="68.6002" y1="11" x2="47.2002" y2="32.9333" gradientUnits="userSpaceOnUse">
<stop stop-color="#8E55F1"/>
<stop offset="0.140795" stop-color="#8B48DF"/>
<stop offset="0.274905" stop-color="#E04DD9"/>
<stop offset="0.492309" stop-color="#F496C8"/>
<stop offset="0.633104" stop-color="#FAD2BA"/>
<stop offset="0.856964" stop-color="#FEF7E5"/>
<stop offset="1" stop-color="#FFF5BF"/>
</linearGradient>
<linearGradient id="paint5_linear_957_1176" x1="66.5005" y1="20.1667" x2="49.0338" y2="28.0667" gradientUnits="userSpaceOnUse">
<stop stop-color="#F41A73"/>
<stop offset="0.399909" stop-color="#FC50A3"/>
<stop offset="0.584511" stop-color="#FE9485"/>
<stop offset="0.703104" stop-color="#FFAF88"/>
<stop offset="1" stop-color="#FFC385"/>
</linearGradient>
<linearGradient id="paint6_linear_957_1176" x1="60.2005" y1="22.6" x2="60.2338" y2="24.2" gradientUnits="userSpaceOnUse">
<stop stop-color="#9B0008"/>
<stop offset="1" stop-color="#EA115A" stop-opacity="0"/>
</linearGradient>
<linearGradient id="paint7_linear_957_1176" x1="68.6" y1="12.8" x2="52.8333" y2="23.1" gradientUnits="userSpaceOnUse">
<stop stop-color="#231283"/>
<stop offset="0.362865" stop-color="#7053C6"/>
<stop offset="0.466353" stop-color="#7272DB"/>
<stop offset="0.634311" stop-color="#399EE9"/>
<stop offset="1" stop-color="#00CFFF"/>
</linearGradient>
<linearGradient id="paint8_linear_957_1176" x1="64.6667" y1="18" x2="65.3667" y2="18.9" gradientUnits="userSpaceOnUse">
<stop stop-color="#3F259D" stop-opacity="0"/>
<stop offset="1" stop-color="#412DAA"/>
</linearGradient>
</defs>
</svg>
