<svg width="29" height="29" viewBox="0 0 29 29" fill="none" xmlns="http://www.w3.org/2000/svg">
<g clip-path="url(#clip0_1_11)">
<mask id="mask0_1_11" style="mask-type:luminance" maskUnits="userSpaceOnUse" x="0" y="0" width="29" height="29">
<path d="M29 29H0V0H29V29Z" fill="white"/>
</mask>
<g mask="url(#mask0_1_11)">
<path d="M29 29H0V0H29V29Z" fill="#808080"/>
<path d="M5 10.75V18.25H8L13 22V7L8 10.75H5Z" stroke="white" stroke-linecap="round" stroke-linejoin="round"/>
<path d="M15 17C15 17 17 16.5 17 14C17 11.5 15 11 15 11" stroke="white" stroke-linecap="round" stroke-linejoin="round"/>
<path d="M16 20C16 20 20 19 20 14C20 8.99996 16 8 16 8" stroke="white" stroke-linecap="round" stroke-linejoin="round"/>
<path d="M18 22C18 22 23 20.6667 23 14C23 7.33337 18 6 18 6" stroke="white" stroke-linecap="round" stroke-linejoin="round"/>
</g>
</g>
<defs>
<clipPath id="clip0_1_11">
<rect width="29" height="29" rx="14.5" transform="matrix(1 0 0 -1 0 29)" fill="white"/>
</clipPath>
</defs>
</svg>
