<svg width="41" height="41" viewBox="0 0 41 41" fill="none" xmlns="http://www.w3.org/2000/svg">
<g clip-path="url(#clip0_1_11)">
<mask id="mask0_1_11" style="mask-type:luminance" maskUnits="userSpaceOnUse" x="0" y="0" width="41" height="41">
<path d="M41 41H0V0H41V41Z" fill="white"/>
</mask>
<g mask="url(#mask0_1_11)">
<path d="M41 41H0V0H41V41Z" fill="#808080"/>
<path d="M6 14V26H10.5L18 32V8L10.5 14H6Z" stroke="white" stroke-width="2" stroke-linecap="round" stroke-linejoin="round"/>
<path d="M22.2083 25.625C22.2083 25.625 25.625 24.7708 25.625 20.5C25.625 16.2292 22.2083 15.375 22.2083 15.375" stroke="white" stroke-width="2" stroke-linecap="round" stroke-linejoin="round"/>
<path d="M25.625 29.0587C25.625 29.0587 30.75 27.6351 30.75 20.5171C30.75 13.399 25.625 11.9754 25.625 11.9754" stroke="white" stroke-width="2" stroke-linecap="round" stroke-linejoin="round"/>
<path d="M29.0417 32.4583C29.0417 32.4583 35.875 30.4653 35.875 20.5C35.875 10.5348 29.0417 8.54168 29.0417 8.54168" stroke="white" stroke-width="2" stroke-linecap="round" stroke-linejoin="round"/>
</g>
</g>
<defs>
<clipPath id="clip0_1_11">
<rect width="41" height="41" rx="20.5" transform="matrix(1 0 0 -1 0 41)" fill="white"/>
</clipPath>
</defs>
</svg>
