<svg width="335" height="86" viewBox="0 0 335 86" fill="none" xmlns="http://www.w3.org/2000/svg">
<rect x="0.5" y="0.5" width="334" height="85" rx="11.5" stroke="url(#paint0_linear_1002_463)"/>
<path d="M49.78 49.02V55.44H44.98V63H38.02V55.44H17.38V49.02L31.84 21H39.34L24.88 49.02H38.02V38.1H44.98V49.02H49.78ZM58.0647 62.4C57.1847 63.28 56.1247 63.72 54.8847 63.72C53.6447 63.72 52.5847 63.28 51.7047 62.4C50.8247 61.52 50.3847 60.46 50.3847 59.22C50.3847 57.98 50.8047 56.92 51.6447 56.04C52.5247 55.16 53.6047 54.72 54.8847 54.72C56.1247 54.72 57.1847 55.16 58.0647 56.04C58.9447 56.92 59.3847 57.98 59.3847 59.22C59.3847 60.46 58.9447 61.52 58.0647 62.4ZM84.2777 41.16C88.3977 43.44 90.4577 46.84 90.4577 51.36C90.4577 55.2 89.1177 58.24 86.4377 60.48C83.7577 62.68 80.1977 63.78 75.7577 63.78C71.3177 63.78 67.7377 62.68 65.0177 60.48C62.3377 58.24 60.9977 55.2 60.9977 51.36C60.9977 49.2 61.5377 47.24 62.6177 45.48C63.6977 43.68 65.2177 42.24 67.1777 41.16C64.0177 39.08 62.4377 36.12 62.4377 32.28C62.4377 28.44 63.7177 25.48 66.2777 23.4C68.8377 21.28 71.9977 20.22 75.7577 20.22C79.4777 20.22 82.6177 21.28 85.1777 23.4C87.7777 25.48 89.0777 28.44 89.0777 32.28C89.0777 36.12 87.4777 39.08 84.2777 41.16ZM75.7577 26.76C73.8777 26.76 72.3377 27.26 71.1377 28.26C69.9377 29.26 69.3377 30.7 69.3377 32.58C69.3377 34.38 69.9377 35.8 71.1377 36.84C72.3777 37.88 73.9177 38.4 75.7577 38.4C77.5577 38.4 79.0777 37.88 80.3177 36.84C81.5577 35.8 82.1777 34.38 82.1777 32.58C82.1777 30.7 81.5577 29.26 80.3177 28.26C79.1177 27.26 77.5977 26.76 75.7577 26.76ZM75.7577 57.24C78.0777 57.24 79.9577 56.68 81.3977 55.56C82.8377 54.4 83.5577 52.78 83.5577 50.7C83.5577 48.62 82.8377 47.02 81.3977 45.9C79.9577 44.74 78.0777 44.16 75.7577 44.16C73.3977 44.16 71.4977 44.74 70.0577 45.9C68.6177 47.02 67.8977 48.62 67.8977 50.7C67.8977 52.78 68.6177 54.4 70.0577 55.56C71.4977 56.68 73.3977 57.24 75.7577 57.24Z" fill="white"/>
<path d="M92.0805 66.5H90.1555L104.155 35H106.08L92.0805 66.5ZM114.844 47.74C117.177 47.74 119.149 48.44 120.759 49.84C122.369 51.2167 123.174 53.13 123.174 55.58C123.174 58.03 122.346 59.955 120.689 61.355C119.032 62.755 117.002 63.455 114.599 63.455C112.662 63.455 110.947 63.0117 109.454 62.125C107.961 61.215 106.899 59.9083 106.269 58.205L109.734 56.21C110.387 58.4267 112.009 59.535 114.599 59.535C115.976 59.535 117.072 59.185 117.889 58.485C118.729 57.7617 119.149 56.7933 119.149 55.58C119.149 54.3667 118.741 53.41 117.924 52.71C117.107 52.01 116.022 51.66 114.669 51.66H107.529L108.474 38.5H122.124V42.28H112.184L111.764 47.74H114.844Z" fill="#737373"/>
<g clip-path="url(#clip0_1002_463)">
<path d="M156.538 19.11C156.709 18.6993 157.291 18.6993 157.462 19.11L159.528 24.0774C159.6 24.2506 159.763 24.3688 159.949 24.3838L165.312 24.8138C165.756 24.8493 165.935 25.4026 165.598 25.6919L161.512 29.1919C161.369 29.3139 161.307 29.5053 161.351 29.6876L162.599 34.9208C162.702 35.3534 162.231 35.6954 161.852 35.4635L157.261 32.6592C157.101 32.5615 156.899 32.5615 156.739 32.6592L152.148 35.4635C151.769 35.6954 151.298 35.3534 151.401 34.9208L152.649 29.6876C152.693 29.5053 152.631 29.3139 152.488 29.1919L148.402 25.6919C148.065 25.4026 148.244 24.8493 148.688 24.8138L154.051 24.3838C154.237 24.3688 154.4 24.2506 154.472 24.0774L156.538 19.11Z" fill="#F2F4F7"/>
<g clip-path="url(#clip1_1002_463)">
<path d="M156.538 19.11C156.709 18.6993 157.291 18.6993 157.462 19.11L159.528 24.0774C159.6 24.2506 159.763 24.3688 159.949 24.3838L165.312 24.8138C165.756 24.8493 165.935 25.4026 165.598 25.6919L161.512 29.1919C161.369 29.3139 161.307 29.5053 161.351 29.6876L162.599 34.9208C162.702 35.3534 162.231 35.6954 161.852 35.4635L157.261 32.6592C157.101 32.5615 156.899 32.5615 156.739 32.6592L152.148 35.4635C151.769 35.6954 151.298 35.3534 151.401 34.9208L152.649 29.6876C152.693 29.5053 152.631 29.3139 152.488 29.1919L148.402 25.6919C148.065 25.4026 148.244 24.8493 148.688 24.8138L154.051 24.3838C154.237 24.3688 154.4 24.2506 154.472 24.0774L156.538 19.11Z" fill="#FDB022"/>
</g>
</g>
<g clip-path="url(#clip2_1002_463)">
<path d="M186.538 19.11C186.709 18.6993 187.291 18.6993 187.462 19.11L189.528 24.0774C189.6 24.2506 189.763 24.3688 189.949 24.3838L195.312 24.8138C195.756 24.8493 195.935 25.4026 195.598 25.6919L191.512 29.1919C191.369 29.3139 191.307 29.5053 191.351 29.6876L192.599 34.9208C192.702 35.3534 192.231 35.6954 191.852 35.4635L187.261 32.6592C187.101 32.5615 186.899 32.5615 186.739 32.6592L182.148 35.4635C181.769 35.6954 181.298 35.3534 181.401 34.9208L182.649 29.6876C182.693 29.5053 182.631 29.3139 182.488 29.1919L178.402 25.6919C178.065 25.4026 178.244 24.8493 178.688 24.8138L184.051 24.3838C184.237 24.3688 184.4 24.2506 184.472 24.0774L186.538 19.11Z" fill="#F2F4F7"/>
<g clip-path="url(#clip3_1002_463)">
<path d="M186.538 19.11C186.709 18.6993 187.291 18.6993 187.462 19.11L189.528 24.0774C189.6 24.2506 189.763 24.3688 189.949 24.3838L195.312 24.8138C195.756 24.8493 195.935 25.4026 195.598 25.6919L191.512 29.1919C191.369 29.3139 191.307 29.5053 191.351 29.6876L192.599 34.9208C192.702 35.3534 192.231 35.6954 191.852 35.4635L187.261 32.6592C187.101 32.5615 186.899 32.5615 186.739 32.6592L182.148 35.4635C181.769 35.6954 181.298 35.3534 181.401 34.9208L182.649 29.6876C182.693 29.5053 182.631 29.3139 182.488 29.1919L178.402 25.6919C178.065 25.4026 178.244 24.8493 178.688 24.8138L184.051 24.3838C184.237 24.3688 184.4 24.2506 184.472 24.0774L186.538 19.11Z" fill="#FDB022"/>
</g>
</g>
<g clip-path="url(#clip4_1002_463)">
<path d="M216.538 19.11C216.709 18.6993 217.291 18.6993 217.462 19.11L219.528 24.0774C219.6 24.2506 219.763 24.3688 219.949 24.3838L225.312 24.8138C225.756 24.8493 225.935 25.4026 225.598 25.6919L221.512 29.1919C221.369 29.3139 221.307 29.5053 221.351 29.6876L222.599 34.9208C222.702 35.3534 222.231 35.6954 221.852 35.4635L217.261 32.6592C217.101 32.5615 216.899 32.5615 216.739 32.6592L212.148 35.4635C211.769 35.6954 211.298 35.3534 211.401 34.9208L212.649 29.6876C212.693 29.5053 212.631 29.3139 212.488 29.1919L208.402 25.6919C208.065 25.4026 208.244 24.8493 208.688 24.8138L214.051 24.3838C214.237 24.3688 214.4 24.2506 214.472 24.0774L216.538 19.11Z" fill="#F2F4F7"/>
<g clip-path="url(#clip5_1002_463)">
<path d="M216.538 19.11C216.709 18.6993 217.291 18.6993 217.462 19.11L219.528 24.0774C219.6 24.2506 219.763 24.3688 219.949 24.3838L225.312 24.8138C225.756 24.8493 225.935 25.4026 225.598 25.6919L221.512 29.1919C221.369 29.3139 221.307 29.5053 221.351 29.6876L222.599 34.9208C222.702 35.3534 222.231 35.6954 221.852 35.4635L217.261 32.6592C217.101 32.5615 216.899 32.5615 216.739 32.6592L212.148 35.4635C211.769 35.6954 211.298 35.3534 211.401 34.9208L212.649 29.6876C212.693 29.5053 212.631 29.3139 212.488 29.1919L208.402 25.6919C208.065 25.4026 208.244 24.8493 208.688 24.8138L214.051 24.3838C214.237 24.3688 214.4 24.2506 214.472 24.0774L216.538 19.11Z" fill="#FDB022"/>
</g>
</g>
<g clip-path="url(#clip6_1002_463)">
<path d="M246.538 19.11C246.709 18.6993 247.291 18.6993 247.462 19.11L249.528 24.0774C249.6 24.2506 249.763 24.3688 249.949 24.3838L255.312 24.8138C255.756 24.8493 255.935 25.4026 255.598 25.6919L251.512 29.1919C251.369 29.3139 251.307 29.5053 251.351 29.6876L252.599 34.9208C252.702 35.3534 252.231 35.6954 251.852 35.4635L247.261 32.6592C247.101 32.5615 246.899 32.5615 246.739 32.6592L242.148 35.4635C241.769 35.6954 241.298 35.3534 241.401 34.9208L242.649 29.6876C242.693 29.5053 242.631 29.3139 242.488 29.1919L238.402 25.6919C238.065 25.4026 238.244 24.8493 238.688 24.8138L244.051 24.3838C244.237 24.3688 244.4 24.2506 244.472 24.0774L246.538 19.11Z" fill="#F2F4F7"/>
<g clip-path="url(#clip7_1002_463)">
<path d="M246.538 19.11C246.709 18.6993 247.291 18.6993 247.462 19.11L249.528 24.0774C249.6 24.2506 249.763 24.3688 249.949 24.3838L255.312 24.8138C255.756 24.8493 255.935 25.4026 255.598 25.6919L251.512 29.1919C251.369 29.3139 251.307 29.5053 251.351 29.6876L252.599 34.9208C252.702 35.3534 252.231 35.6954 251.852 35.4635L247.261 32.6592C247.101 32.5615 246.899 32.5615 246.739 32.6592L242.148 35.4635C241.769 35.6954 241.298 35.3534 241.401 34.9208L242.649 29.6876C242.693 29.5053 242.631 29.3139 242.488 29.1919L238.402 25.6919C238.065 25.4026 238.244 24.8493 238.688 24.8138L244.051 24.3838C244.237 24.3688 244.4 24.2506 244.472 24.0774L246.538 19.11Z" fill="#FDB022"/>
</g>
</g>
<g clip-path="url(#clip8_1002_463)">
<path d="M276.538 19.11C276.709 18.6993 277.291 18.6993 277.462 19.11L279.528 24.0774C279.6 24.2506 279.763 24.3688 279.949 24.3838L285.312 24.8138C285.756 24.8493 285.935 25.4026 285.598 25.6919L281.512 29.1919C281.369 29.3139 281.307 29.5053 281.351 29.6876L282.599 34.9208C282.702 35.3534 282.231 35.6954 281.852 35.4635L277.261 32.6592C277.101 32.5615 276.899 32.5615 276.739 32.6592L272.148 35.4635C271.769 35.6954 271.298 35.3534 271.401 34.9208L272.649 29.6876C272.693 29.5053 272.631 29.3139 272.488 29.1919L268.402 25.6919C268.065 25.4026 268.244 24.8493 268.688 24.8138L274.051 24.3838C274.237 24.3688 274.4 24.2506 274.472 24.0774L276.538 19.11Z" fill="#F2F4F7"/>
<g clip-path="url(#clip9_1002_463)">
<path d="M276.538 19.11C276.709 18.6993 277.291 18.6993 277.462 19.11L279.528 24.0774C279.6 24.2506 279.763 24.3688 279.949 24.3838L285.312 24.8138C285.756 24.8493 285.935 25.4026 285.598 25.6919L281.512 29.1919C281.369 29.3139 281.307 29.5053 281.351 29.6876L282.599 34.9208C282.702 35.3534 282.231 35.6954 281.852 35.4635L277.261 32.6592C277.101 32.5615 276.899 32.5615 276.739 32.6592L272.148 35.4635C271.769 35.6954 271.298 35.3534 271.401 34.9208L272.649 29.6876C272.693 29.5053 272.631 29.3139 272.488 29.1919L268.402 25.6919C268.065 25.4026 268.244 24.8493 268.688 24.8138L274.051 24.3838C274.237 24.3688 274.4 24.2506 274.472 24.0774L276.538 19.11Z" fill="#FDB022"/>
</g>
</g>
<path d="M155.16 62.5L152.536 58.02H149.4V62.5H148.28V51.3H152.76C153.688 51.3 154.477 51.6307 155.128 52.292C155.789 52.9427 156.12 53.732 156.12 54.66C156.12 55.4173 155.891 56.0947 155.432 56.692C154.984 57.2787 154.408 57.6733 153.704 57.876L156.44 62.5H155.16ZM149.4 52.356V56.964H152.76C153.379 56.964 153.907 56.74 154.344 56.292C154.781 55.8333 155 55.2893 155 54.66C155 54.02 154.781 53.476 154.344 53.028C153.907 52.58 153.379 52.356 152.76 52.356H149.4ZM164.199 54.5H165.255V62.5H164.199V60.932C163.463 62.1053 162.386 62.692 160.967 62.692C159.826 62.692 158.85 62.2867 158.039 61.476C157.239 60.6653 156.839 59.6733 156.839 58.5C156.839 57.3267 157.239 56.3347 158.039 55.524C158.85 54.7133 159.826 54.308 160.967 54.308C162.386 54.308 163.463 54.8947 164.199 56.068V54.5ZM158.807 60.756C159.415 61.364 160.162 61.668 161.047 61.668C161.933 61.668 162.679 61.364 163.287 60.756C163.895 60.1373 164.199 59.3853 164.199 58.5C164.199 57.6147 163.895 56.868 163.287 56.26C162.679 55.6413 161.933 55.332 161.047 55.332C160.162 55.332 159.415 55.6413 158.807 56.26C158.199 56.868 157.895 57.6147 157.895 58.5C157.895 59.3853 158.199 60.1373 158.807 60.756ZM171.571 55.524H169.267V60.372C169.267 60.8093 169.353 61.124 169.523 61.316C169.694 61.4973 169.95 61.5933 170.291 61.604C170.633 61.604 171.059 61.5933 171.571 61.572V62.5C170.451 62.6707 169.609 62.5907 169.043 62.26C168.489 61.9293 168.211 61.3 168.211 60.372V55.524H166.531V54.5H168.211V52.58L169.267 52.26V54.5H171.571V55.524ZM176.383 54.308C177.567 54.308 178.522 54.7293 179.247 55.572C179.983 56.404 180.351 57.3907 180.351 58.532C180.351 58.6493 180.34 58.8147 180.319 59.028H173.295C173.402 59.8387 173.743 60.484 174.319 60.964C174.906 61.4333 175.626 61.668 176.479 61.668C177.087 61.668 177.61 61.5453 178.047 61.3C178.495 61.044 178.831 60.7133 179.055 60.308L179.983 60.852C179.631 61.4173 179.151 61.8653 178.543 62.196C177.935 62.5267 177.242 62.692 176.463 62.692C175.204 62.692 174.18 62.2973 173.391 61.508C172.602 60.7187 172.207 59.716 172.207 58.5C172.207 57.3053 172.596 56.308 173.375 55.508C174.154 54.708 175.156 54.308 176.383 54.308ZM176.383 55.332C175.551 55.332 174.852 55.5827 174.287 56.084C173.732 56.5747 173.402 57.2147 173.295 58.004H179.263C179.156 57.1613 178.831 56.5053 178.287 56.036C177.743 55.5667 177.108 55.332 176.383 55.332ZM188.751 51.3H189.807V62.5H188.751V60.932C188.015 62.1053 186.937 62.692 185.519 62.692C184.377 62.692 183.401 62.2867 182.591 61.476C181.791 60.6653 181.391 59.6733 181.391 58.5C181.391 57.3267 181.791 56.3347 182.591 55.524C183.401 54.7133 184.377 54.308 185.519 54.308C186.937 54.308 188.015 54.8947 188.751 56.068V51.3ZM183.359 60.756C183.967 61.364 184.713 61.668 185.599 61.668C186.484 61.668 187.231 61.364 187.839 60.756C188.447 60.1373 188.751 59.3853 188.751 58.5C188.751 57.6147 188.447 56.868 187.839 56.26C187.231 55.6413 186.484 55.332 185.599 55.332C184.713 55.332 183.967 55.6413 183.359 56.26C182.751 56.868 182.447 57.6147 182.447 58.5C182.447 59.3853 182.751 60.1373 183.359 60.756ZM200.011 54.308C201.152 54.308 202.123 54.7133 202.923 55.524C203.733 56.3347 204.139 57.3267 204.139 58.5C204.139 59.6733 203.733 60.6653 202.923 61.476C202.123 62.2867 201.152 62.692 200.011 62.692C198.592 62.692 197.515 62.1053 196.779 60.932V62.5H195.723V51.3H196.779V56.068C197.515 54.8947 198.592 54.308 200.011 54.308ZM197.691 60.756C198.299 61.364 199.045 61.668 199.931 61.668C200.816 61.668 201.563 61.364 202.171 60.756C202.779 60.1373 203.083 59.3853 203.083 58.5C203.083 57.6147 202.779 56.868 202.171 56.26C201.563 55.6413 200.816 55.332 199.931 55.332C199.045 55.332 198.299 55.6413 197.691 56.26C197.083 56.868 196.779 57.6147 196.779 58.5C196.779 59.3853 197.083 60.1373 197.691 60.756ZM211.182 54.5H212.302L208.878 63.236C208.569 64.0253 208.126 64.644 207.55 65.092C206.985 65.5507 206.35 65.7533 205.646 65.7V64.708C206.606 64.8147 207.337 64.26 207.838 63.044L208.046 62.548L204.462 54.5H205.582L208.59 61.204L211.182 54.5ZM221.498 55.524H219.194V60.372C219.194 60.8093 219.279 61.124 219.45 61.316C219.621 61.4973 219.877 61.5933 220.218 61.604C220.559 61.604 220.986 61.5933 221.498 61.572V62.5C220.378 62.6707 219.535 62.5907 218.97 62.26C218.415 61.9293 218.138 61.3 218.138 60.372V55.524H216.458V54.5H218.138V52.58L219.194 52.26V54.5H221.498V55.524ZM229.318 61.492C228.507 62.292 227.515 62.692 226.342 62.692C225.168 62.692 224.171 62.292 223.35 61.492C222.539 60.6813 222.134 59.684 222.134 58.5C222.134 57.316 222.539 56.324 223.35 55.524C224.171 54.7133 225.168 54.308 226.342 54.308C227.515 54.308 228.507 54.7133 229.318 55.524C230.139 56.324 230.55 57.316 230.55 58.5C230.55 59.684 230.139 60.6813 229.318 61.492ZM224.102 60.756C224.71 61.364 225.456 61.668 226.342 61.668C227.227 61.668 227.974 61.364 228.582 60.756C229.19 60.1373 229.494 59.3853 229.494 58.5C229.494 57.6147 229.19 56.868 228.582 56.26C227.974 55.6413 227.227 55.332 226.342 55.332C225.456 55.332 224.71 55.6413 224.102 56.26C223.494 56.868 223.19 57.6147 223.19 58.5C223.19 59.3853 223.494 60.1373 224.102 60.756ZM236.445 54.308C237.586 54.308 238.557 54.7133 239.357 55.524C240.168 56.3347 240.573 57.3267 240.573 58.5C240.573 59.6733 240.168 60.6653 239.357 61.476C238.557 62.2867 237.586 62.692 236.445 62.692C235.026 62.692 233.949 62.1053 233.213 60.932V65.7H232.157V54.5H233.213V56.068C233.949 54.8947 235.026 54.308 236.445 54.308ZM234.125 60.756C234.733 61.364 235.48 61.668 236.365 61.668C237.25 61.668 237.997 61.364 238.605 60.756C239.213 60.1373 239.517 59.3853 239.517 58.5C239.517 57.6147 239.213 56.868 238.605 56.26C237.997 55.6413 237.25 55.332 236.365 55.332C235.48 55.332 234.733 55.6413 234.125 56.26C233.517 56.868 233.213 57.6147 233.213 58.5C233.213 59.3853 233.517 60.1373 234.125 60.756ZM252.889 54.5H253.945V62.5H252.889V60.932C252.153 62.1053 251.075 62.692 249.657 62.692C248.515 62.692 247.539 62.2867 246.729 61.476C245.929 60.6653 245.529 59.6733 245.529 58.5C245.529 57.3267 245.929 56.3347 246.729 55.524C247.539 54.7133 248.515 54.308 249.657 54.308C251.075 54.308 252.153 54.8947 252.889 56.068V54.5ZM247.497 60.756C248.105 61.364 248.851 61.668 249.737 61.668C250.622 61.668 251.369 61.364 251.977 60.756C252.585 60.1373 252.889 59.3853 252.889 58.5C252.889 57.6147 252.585 56.868 251.977 56.26C251.369 55.6413 250.622 55.332 249.737 55.332C248.851 55.332 248.105 55.6413 247.497 56.26C246.889 56.868 246.585 57.6147 246.585 58.5C246.585 59.3853 246.889 60.1373 247.497 60.756ZM262.901 54.5H263.957V62.18C263.957 63.332 263.562 64.2387 262.773 64.9C261.983 65.5613 261.039 65.892 259.941 65.892C258.063 65.892 256.799 65.2413 256.149 63.94L257.077 63.412C257.557 64.3827 258.511 64.868 259.941 64.868C260.858 64.868 261.578 64.6227 262.101 64.132C262.634 63.652 262.901 63.0013 262.901 62.18V60.932C262.165 62.1053 261.087 62.692 259.669 62.692C258.527 62.692 257.551 62.2867 256.741 61.476C255.941 60.6653 255.541 59.6733 255.541 58.5C255.541 57.3267 255.941 56.3347 256.741 55.524C257.551 54.7133 258.527 54.308 259.669 54.308C261.087 54.308 262.165 54.8947 262.901 56.068V54.5ZM257.509 60.756C258.117 61.364 258.863 61.668 259.749 61.668C260.634 61.668 261.381 61.364 261.989 60.756C262.597 60.1373 262.901 59.3853 262.901 58.5C262.901 57.6147 262.597 56.868 261.989 56.26C261.381 55.6413 260.634 55.332 259.749 55.332C258.863 55.332 258.117 55.6413 257.509 56.26C256.901 56.868 256.597 57.6147 256.597 58.5C256.597 59.3853 256.901 60.1373 257.509 60.756ZM269.728 54.308C270.912 54.308 271.867 54.7293 272.592 55.572C273.328 56.404 273.696 57.3907 273.696 58.532C273.696 58.6493 273.686 58.8147 273.664 59.028H266.64C266.747 59.8387 267.088 60.484 267.664 60.964C268.251 61.4333 268.971 61.668 269.824 61.668C270.432 61.668 270.955 61.5453 271.392 61.3C271.84 61.044 272.176 60.7133 272.4 60.308L273.328 60.852C272.976 61.4173 272.496 61.8653 271.888 62.196C271.28 62.5267 270.587 62.692 269.808 62.692C268.55 62.692 267.526 62.2973 266.736 61.508C265.947 60.7187 265.552 59.716 265.552 58.5C265.552 57.3053 265.942 56.308 266.72 55.508C267.499 54.708 268.502 54.308 269.728 54.308ZM269.728 55.332C268.896 55.332 268.198 55.5827 267.632 56.084C267.078 56.5747 266.747 57.2147 266.64 58.004H272.608C272.502 57.1613 272.176 56.5053 271.632 56.036C271.088 55.5667 270.454 55.332 269.728 55.332ZM278.96 54.308C279.931 54.308 280.694 54.6067 281.248 55.204C281.814 55.7907 282.096 56.5853 282.096 57.588V62.5H281.04V57.588C281.04 56.8733 280.848 56.3187 280.464 55.924C280.091 55.5293 279.558 55.332 278.864 55.332C278.096 55.332 277.472 55.5773 276.992 56.068C276.512 56.548 276.272 57.2947 276.272 58.308V62.5H275.216V54.5H276.272V55.748C276.87 54.788 277.766 54.308 278.96 54.308ZM287.706 62.692C286.501 62.692 285.498 62.292 284.698 61.492C283.898 60.6813 283.498 59.684 283.498 58.5C283.498 57.316 283.898 56.324 284.698 55.524C285.498 54.7133 286.501 54.308 287.706 54.308C288.495 54.308 289.205 54.5 289.834 54.884C290.463 55.2573 290.922 55.764 291.21 56.404L290.346 56.9C290.133 56.42 289.786 56.0413 289.306 55.764C288.837 55.476 288.303 55.332 287.706 55.332C286.821 55.332 286.074 55.6413 285.466 56.26C284.858 56.868 284.554 57.6147 284.554 58.5C284.554 59.3853 284.858 60.1373 285.466 60.756C286.074 61.364 286.821 61.668 287.706 61.668C288.303 61.668 288.837 61.5293 289.306 61.252C289.775 60.964 290.143 60.58 290.41 60.1L291.29 60.612C290.959 61.252 290.474 61.7587 289.834 62.132C289.194 62.5053 288.485 62.692 287.706 62.692ZM293.718 52.58C293.569 52.7293 293.388 52.804 293.174 52.804C292.961 52.804 292.78 52.7293 292.63 52.58C292.481 52.4307 292.406 52.2493 292.406 52.036C292.406 51.8227 292.481 51.6413 292.63 51.492C292.78 51.3427 292.961 51.268 293.174 51.268C293.388 51.268 293.569 51.3427 293.718 51.492C293.868 51.6413 293.942 51.8227 293.942 52.036C293.942 52.2493 293.868 52.4307 293.718 52.58ZM292.646 62.5V54.5H293.702V62.5H292.646ZM299.479 54.308C300.663 54.308 301.618 54.7293 302.343 55.572C303.079 56.404 303.447 57.3907 303.447 58.532C303.447 58.6493 303.436 58.8147 303.415 59.028H296.391C296.498 59.8387 296.839 60.484 297.415 60.964C298.002 61.4333 298.722 61.668 299.575 61.668C300.183 61.668 300.706 61.5453 301.143 61.3C301.591 61.044 301.927 60.7133 302.151 60.308L303.079 60.852C302.727 61.4173 302.247 61.8653 301.639 62.196C301.031 62.5267 300.338 62.692 299.559 62.692C298.3 62.692 297.276 62.2973 296.487 61.508C295.698 60.7187 295.303 59.716 295.303 58.5C295.303 57.3053 295.692 56.308 296.471 55.508C297.25 54.708 298.252 54.308 299.479 54.308ZM299.479 55.332C298.647 55.332 297.948 55.5827 297.383 56.084C296.828 56.5747 296.498 57.2147 296.391 58.004H302.359C302.252 57.1613 301.927 56.5053 301.383 56.036C300.839 55.5667 300.204 55.332 299.479 55.332ZM305.486 56.596C305.486 56.9587 305.646 57.2467 305.966 57.46C306.286 57.6733 306.676 57.8387 307.134 57.956C307.593 58.0733 308.052 58.2067 308.51 58.356C308.969 58.4947 309.358 58.7347 309.678 59.076C309.998 59.4067 310.158 59.844 310.158 60.388C310.158 61.0707 309.886 61.6253 309.342 62.052C308.809 62.4787 308.116 62.692 307.262 62.692C306.494 62.692 305.838 62.5213 305.294 62.18C304.761 61.8387 304.388 61.396 304.174 60.852L305.07 60.324C305.22 60.74 305.486 61.0707 305.87 61.316C306.265 61.5507 306.729 61.668 307.262 61.668C307.785 61.668 308.222 61.5667 308.574 61.364C308.926 61.1507 309.102 60.8253 309.102 60.388C309.102 60.0253 308.942 59.7373 308.622 59.524C308.302 59.3107 307.913 59.1453 307.454 59.028C306.996 58.9107 306.537 58.7827 306.078 58.644C305.62 58.4947 305.23 58.2547 304.91 57.924C304.59 57.5827 304.43 57.14 304.43 56.596C304.43 55.9453 304.686 55.4013 305.198 54.964C305.721 54.5267 306.377 54.308 307.166 54.308C307.817 54.308 308.388 54.4573 308.878 54.756C309.369 55.044 309.732 55.4387 309.966 55.94L309.086 56.452C308.777 55.7053 308.137 55.332 307.166 55.332C306.708 55.332 306.313 55.444 305.982 55.668C305.652 55.8813 305.486 56.1907 305.486 56.596Z" fill="#737373"/>
<defs>
<linearGradient id="paint0_linear_1002_463" x1="-9" y1="86" x2="370.5" y2="-18.5" gradientUnits="userSpaceOnUse">
<stop stop-color="#9032FF"/>
<stop offset="1" stop-color="#2045FF"/>
</linearGradient>
<clipPath id="clip0_1002_463">
<rect width="20" height="20" fill="white" transform="translate(147 17.5)"/>
</clipPath>
<clipPath id="clip1_1002_463">
<rect width="20" height="20" fill="white" transform="translate(147 17.5)"/>
</clipPath>
<clipPath id="clip2_1002_463">
<rect width="20" height="20" fill="white" transform="translate(177 17.5)"/>
</clipPath>
<clipPath id="clip3_1002_463">
<rect width="20" height="20" fill="white" transform="translate(177 17.5)"/>
</clipPath>
<clipPath id="clip4_1002_463">
<rect width="20" height="20" fill="white" transform="translate(207 17.5)"/>
</clipPath>
<clipPath id="clip5_1002_463">
<rect width="20" height="20" fill="white" transform="translate(207 17.5)"/>
</clipPath>
<clipPath id="clip6_1002_463">
<rect width="20" height="20" fill="white" transform="translate(237 17.5)"/>
</clipPath>
<clipPath id="clip7_1002_463">
<rect width="20" height="20" fill="white" transform="translate(237 17.5)"/>
</clipPath>
<clipPath id="clip8_1002_463">
<rect width="20" height="20" fill="white" transform="translate(267 17.5)"/>
</clipPath>
<clipPath id="clip9_1002_463">
<rect width="20" height="20" fill="white" transform="translate(267 17.5)"/>
</clipPath>
</defs>
</svg>
