<svg width="241" height="496" viewBox="0 0 241 496" fill="none" xmlns="http://www.w3.org/2000/svg">
<path d="M60.9066 354.349L112.011 407.78L177.001 372.525L141.977 437.639L195.59 488.554L122.839 475.366L90.9842 542.088L81.0454 468.823L7.74544 459.145L74.3533 427.052L60.9066 354.349Z" fill="#FDE272"/>
<path d="M69.0145 193.778L83.8631 266.207L157.648 270.929L93.3519 307.432L111.663 379.065L57.0768 329.196L-5.39169 368.746L25.1687 301.422L-31.7497 254.232L41.7235 262.493L69.0145 193.778Z" fill="#FDE272"/>
<path d="M137.78 41.0655L136.19 79.8655L173.207 91.6023L135.815 102.081L136.091 140.912L114.571 108.588L77.7252 120.85L101.817 90.3948L78.7689 59.1418L115.179 72.6433L137.78 41.0655Z" fill="#FDE272"/>
<path d="M108.681 6.84876L108.062 21.956L122.475 26.5259L107.916 30.6058L108.024 45.7253L99.6446 33.1395L85.2983 37.9141L94.6787 26.0558L85.7047 13.887L99.8813 19.144L108.681 6.84876Z" fill="#FDE272"/>
</svg>
