<svg width="21" height="20" viewBox="0 0 21 20" fill="none" xmlns="http://www.w3.org/2000/svg">
<path fill-rule="evenodd" clip-rule="evenodd" d="M14.5002 6C14.814 5.58217 15 5.0628 15 4.5C15 3.11929 13.8807 2 12.5 2C11.6822 2 10.9561 2.39267 10.5 2.99976C10.0439 2.39267 9.3178 2 8.5 2C7.11929 2 6 3.11929 6 4.5C6 5.0628 6.18597 5.58217 6.49982 6H3.75C3.05964 6 2.5 6.55964 2.5 7.25V7.75C2.5 8.44036 3.05964 9 3.75 9H9.75V6H11.25V9H17.25C17.9404 9 18.5 8.44036 18.5 7.75V7.25C18.5 6.55964 17.9404 6 17.25 6H14.5002ZM13.5 4.5C13.5 5.05228 13.0523 5.5 12.5 5.5H11.5L11.5 4.5C11.5 3.94772 11.9477 3.5 12.5 3.5C13.0523 3.5 13.5 3.94772 13.5 4.5ZM7.5 4.5C7.5 5.05228 7.94772 5.5 8.5 5.5H9.5V4.5C9.5 3.94772 9.05228 3.5 8.5 3.5C7.94772 3.5 7.5 3.94772 7.5 4.5Z" fill="#D23D3C"/>
<path d="M9.75 10.5H3.5V15.25C3.5 16.7688 4.73122 18 6.25 18H9.75V10.5Z" fill="#D23D3C"/>
<path d="M11.25 18V10.5H17.5V15.25C17.5 16.7688 16.2688 18 14.75 18H11.25Z" fill="#D23D3C"/>
</svg>
