<svg width="157" height="40" viewBox="0 0 157 40" fill="none" xmlns="http://www.w3.org/2000/svg">
<g clip-path="url(#clip0_1643_6125)">
<path d="M14.5383 6.85996C14.7091 6.44932 15.2909 6.44932 15.4617 6.85996L18.8503 15.0072C18.9223 15.1803 19.0851 15.2986 19.272 15.3135L28.0675 16.0187C28.5109 16.0542 28.6906 16.6075 28.3529 16.8968L21.6516 22.6372C21.5092 22.7592 21.447 22.9506 21.4905 23.1329L23.5378 31.7159C23.641 32.1485 23.1704 32.4905 22.7909 32.2586L15.2606 27.6592C15.1006 27.5615 14.8994 27.5615 14.7394 27.6592L7.20913 32.2586C6.82958 32.4905 6.35896 32.1485 6.46215 31.7159L8.50951 23.1329C8.55301 22.9506 8.49083 22.7592 8.34843 22.6372L1.64713 16.8968C1.30936 16.6075 1.48912 16.0542 1.93245 16.0187L10.728 15.3135C10.9149 15.2986 11.0777 15.1803 11.1497 15.0072L14.5383 6.85996Z" fill="#FDB022"/>
</g>
<g clip-path="url(#clip1_1643_6125)">
<path d="M46.2883 6.85996C46.4591 6.44932 47.0409 6.44932 47.2117 6.85996L50.6003 15.0072C50.6723 15.1803 50.8351 15.2986 51.022 15.3135L59.8175 16.0187C60.2609 16.0542 60.4406 16.6075 60.1029 16.8968L53.4016 22.6372C53.2592 22.7592 53.197 22.9506 53.2405 23.1329L55.2878 31.7159C55.391 32.1485 54.9204 32.4905 54.5409 32.2586L47.0106 27.6592C46.8506 27.5615 46.6494 27.5615 46.4894 27.6592L38.9591 32.2586C38.5796 32.4905 38.109 32.1485 38.2122 31.7159L40.2595 23.1329C40.303 22.9506 40.2408 22.7592 40.0984 22.6372L33.3971 16.8968C33.0594 16.6075 33.2391 16.0542 33.6825 16.0187L42.478 15.3135C42.6649 15.2986 42.8277 15.1803 42.8997 15.0072L46.2883 6.85996Z" fill="#FDB022"/>
</g>
<g clip-path="url(#clip2_1643_6125)">
<path d="M78.0383 6.85996C78.2091 6.44932 78.7909 6.44932 78.9617 6.85996L82.3503 15.0072C82.4223 15.1803 82.5851 15.2986 82.772 15.3135L91.5675 16.0187C92.0109 16.0542 92.1906 16.6075 91.8529 16.8968L85.1516 22.6372C85.0092 22.7592 84.947 22.9506 84.9905 23.1329L87.0378 31.7159C87.141 32.1485 86.6704 32.4905 86.2909 32.2586L78.7606 27.6592C78.6006 27.5615 78.3994 27.5615 78.2394 27.6592L70.7091 32.2586C70.3296 32.4905 69.859 32.1485 69.9622 31.7159L72.0095 23.1329C72.053 22.9506 71.9908 22.7592 71.8484 22.6372L65.1471 16.8968C64.8094 16.6075 64.9891 16.0542 65.4325 16.0187L74.228 15.3135C74.4149 15.2986 74.5777 15.1803 74.6497 15.0072L78.0383 6.85996Z" fill="#FDB022"/>
</g>
<g clip-path="url(#clip3_1643_6125)">
<path d="M109.788 6.85996C109.959 6.44932 110.541 6.44932 110.712 6.85996L114.1 15.0072C114.172 15.1803 114.335 15.2986 114.522 15.3135L123.318 16.0187C123.761 16.0542 123.941 16.6075 123.603 16.8968L116.902 22.6372C116.759 22.7592 116.697 22.9506 116.74 23.1329L118.788 31.7159C118.891 32.1485 118.42 32.4905 118.041 32.2586L110.511 27.6592C110.351 27.5615 110.149 27.5615 109.989 27.6592L102.459 32.2586C102.08 32.4905 101.609 32.1485 101.712 31.7159L103.76 23.1329C103.803 22.9506 103.741 22.7592 103.598 22.6372L96.8971 16.8968C96.5594 16.6075 96.7391 16.0542 97.1825 16.0187L105.978 15.3135C106.165 15.2986 106.328 15.1803 106.4 15.0072L109.788 6.85996Z" fill="#FDB022"/>
</g>
<g clip-path="url(#clip4_1643_6125)">
<path d="M141.538 6.85996C141.709 6.44932 142.291 6.44932 142.462 6.85996L145.85 15.0072C145.922 15.1803 146.085 15.2986 146.272 15.3135L155.068 16.0187C155.511 16.0542 155.691 16.6075 155.353 16.8968L148.652 22.6372C148.509 22.7592 148.447 22.9506 148.49 23.1329L150.538 31.7159C150.641 32.1485 150.17 32.4905 149.791 32.2586L142.261 27.6592C142.101 27.5615 141.899 27.5615 141.739 27.6592L134.209 32.2586C133.83 32.4905 133.359 32.1485 133.462 31.7159L135.51 23.1329C135.553 22.9506 135.491 22.7592 135.348 22.6372L128.647 16.8968C128.309 16.6075 128.489 16.0542 128.932 16.0187L137.728 15.3135C137.915 15.2986 138.078 15.1803 138.15 15.0072L141.538 6.85996Z" fill="#FDB022"/>
</g>
<defs>
<clipPath id="clip0_1643_6125">
<rect width="30" height="30" fill="white" transform="translate(0 5)"/>
</clipPath>
<clipPath id="clip1_1643_6125">
<rect width="30" height="30" fill="white" transform="translate(31.75 5)"/>
</clipPath>
<clipPath id="clip2_1643_6125">
<rect width="30" height="30" fill="white" transform="translate(63.5 5)"/>
</clipPath>
<clipPath id="clip3_1643_6125">
<rect width="30" height="30" fill="white" transform="translate(95.25 5)"/>
</clipPath>
<clipPath id="clip4_1643_6125">
<rect width="30" height="30" fill="white" transform="translate(127 5)"/>
</clipPath>
</defs>
</svg>
