<svg width="120" height="24" viewBox="0 0 120 24" fill="none" xmlns="http://www.w3.org/2000/svg">
<path d="M17.5 6.5H17.51M7 2H17C19.7614 2 22 4.23858 22 7V17C22 19.7614 19.7614 22 17 22H7C4.23858 22 2 19.7614 2 17V7C2 4.23858 4.23858 2 7 2ZM16 11.37C16.1234 12.2022 15.9813 13.0522 15.5938 13.799C15.2063 14.5458 14.5931 15.1514 13.8416 15.5297C13.0901 15.9079 12.2384 16.0396 11.4078 15.9059C10.5771 15.7723 9.80976 15.3801 9.21484 14.7852C8.61992 14.1902 8.22773 13.4229 8.09407 12.5922C7.9604 11.7616 8.09207 10.9099 8.47033 10.1584C8.84859 9.40685 9.45419 8.79374 10.201 8.40624C10.9478 8.01874 11.7978 7.87659 12.63 8C13.4789 8.12588 14.2649 8.52146 14.8717 9.12831C15.4785 9.73515 15.8741 10.5211 16 11.37Z" stroke="white" stroke-width="2" stroke-linecap="round" stroke-linejoin="round"/>
<g clip-path="url(#clip0_1004_2759)">
<path d="M70.2234 0H49.7719C48.7922 0 48 0.773438 48 1.72969V22.2656C48 23.2219 48.7922 24 49.7719 24H70.2234C71.2031 24 72 23.2219 72 22.2703V1.72969C72 0.773438 71.2031 0 70.2234 0ZM55.1203 20.4516H51.5578V8.99531H55.1203V20.4516ZM53.3391 7.43438C52.1953 7.43438 51.2719 6.51094 51.2719 5.37187C51.2719 4.23281 52.1953 3.30937 53.3391 3.30937C54.4781 3.30937 55.4016 4.23281 55.4016 5.37187C55.4016 6.50625 54.4781 7.43438 53.3391 7.43438ZM68.4516 20.4516H64.8937V14.8828C64.8937 13.5562 64.8703 11.8453 63.0422 11.8453C61.1906 11.8453 60.9094 13.2937 60.9094 14.7891V20.4516H57.3563V8.99531H60.7687V10.5609H60.8156C61.2891 9.66094 62.4516 8.70938 64.1813 8.70938C67.7859 8.70938 68.4516 11.0813 68.4516 14.1656V20.4516Z" fill="white"/>
</g>
<g clip-path="url(#clip1_1004_2759)">
<path d="M120 12C120 5.37258 114.627 0 108 0C101.373 0 96 5.37258 96 12C96 17.9895 100.388 22.954 106.125 23.8542V15.4688H103.078V12H106.125V9.35625C106.125 6.34875 107.917 4.6875 110.658 4.6875C111.97 4.6875 113.344 4.92188 113.344 4.92188V7.875H111.831C110.34 7.875 109.875 8.80008 109.875 9.75V12H113.203L112.671 15.4688H109.875V23.8542C115.612 22.954 120 17.9895 120 12Z" fill="white"/>
</g>
<defs>
<clipPath id="clip0_1004_2759">
<rect width="24" height="24" fill="white" transform="translate(48)"/>
</clipPath>
<clipPath id="clip1_1004_2759">
<rect width="24" height="24" fill="white" transform="translate(96)"/>
</clipPath>
</defs>
</svg>
